<svg id="wave" viewBox="0 0 1440 180" version="1.1" xmlns="http://www.w3.org/2000/svg"><defs><linearGradient id="sw-gradient-0" x1="0" x2="0" y1="1" y2="0"><stop stop-color="rgba(1, 114, 92, 1)" offset="0%"></stop><stop stop-color="rgba(1, 114, 92, 1)" offset="100%"></stop></linearGradient></defs><path style="transform:translate(0, 0px); opacity:1" fill="url(#sw-gradient-0)" d="M0,144L26.7,147C53.3,150,107,156,160,150C213.3,144,267,126,320,111C373.3,96,427,84,480,84C533.3,84,587,96,640,90C693.3,84,747,60,800,51C853.3,42,907,48,960,57C1013.3,66,1067,78,1120,78C1173.3,78,1227,66,1280,78C1333.3,90,1387,126,1440,126C1493.3,126,1547,90,1600,66C1653.3,42,1707,30,1760,30C1813.3,30,1867,42,1920,48C1973.3,54,2027,54,2080,57C2133.3,60,2187,66,2240,84C2293.3,102,2347,132,2400,147C2453.3,162,2507,162,2560,144C2613.3,126,2667,90,2720,81C2773.3,72,2827,90,2880,105C2933.3,120,2987,132,3040,120C3093.3,108,3147,72,3200,72C3253.3,72,3307,108,3360,108C3413.3,108,3467,72,3520,48C3573.3,24,3627,12,3680,30C3733.3,48,3787,96,3813,120L3840,144L3840,180L3813.3,180C3786.7,180,3733,180,3680,180C3626.7,180,3573,180,3520,180C3466.7,180,3413,180,3360,180C3306.7,180,3253,180,3200,180C3146.7,180,3093,180,3040,180C2986.7,180,2933,180,2880,180C2826.7,180,2773,180,2720,180C2666.7,180,2613,180,2560,180C2506.7,180,2453,180,2400,180C2346.7,180,2293,180,2240,180C2186.7,180,2133,180,2080,180C2026.7,180,1973,180,1920,180C1866.7,180,1813,180,1760,180C1706.7,180,1653,180,1600,180C1546.7,180,1493,180,1440,180C1386.7,180,1333,180,1280,180C1226.7,180,1173,180,1120,180C1066.7,180,1013,180,960,180C906.7,180,853,180,800,180C746.7,180,693,180,640,180C586.7,180,533,180,480,180C426.7,180,373,180,320,180C266.7,180,213,180,160,180C106.7,180,53,180,27,180L0,180Z"></path></svg>