<svg id="wave" style="transform:rotate(0deg); transition: 0.3s" viewBox="0 0 1440 180" version="1.1" xmlns="http://www.w3.org/2000/svg"><defs><linearGradient id="sw-gradient-0" x1="0" x2="0" y1="1" y2="0"><stop stop-color="rgba(1, 114, 92, 1)" offset="20%"></stop><stop stop-color="rgba(11, 192, 165, 1)" offset="120%"></stop></linearGradient></defs><path style="transform:translate(0, 0px); opacity:1" fill="url(#sw-gradient-0)" d="M0,144L24,129C48,114,96,84,144,81C192,78,240,102,288,105C336,108,384,90,432,78C480,66,528,60,576,66C624,72,672,90,720,90C768,90,816,72,864,60C912,48,960,42,1008,57C1056,72,1104,108,1152,120C1200,132,1248,120,1296,120C1344,120,1392,132,1440,117C1488,102,1536,60,1584,51C1632,42,1680,66,1728,84C1776,102,1824,114,1872,105C1920,96,1968,66,2016,69C2064,72,2112,108,2160,114C2208,120,2256,96,2304,78C2352,60,2400,48,2448,57C2496,66,2544,96,2592,96C2640,96,2688,66,2736,54C2784,42,2832,48,2880,60C2928,72,2976,90,3024,108C3072,126,3120,144,3168,129C3216,114,3264,66,3312,45C3360,24,3408,30,3432,33L3456,36L3456,180L3432,180C3408,180,3360,180,3312,180C3264,180,3216,180,3168,180C3120,180,3072,180,3024,180C2976,180,2928,180,2880,180C2832,180,2784,180,2736,180C2688,180,2640,180,2592,180C2544,180,2496,180,2448,180C2400,180,2352,180,2304,180C2256,180,2208,180,2160,180C2112,180,2064,180,2016,180C1968,180,1920,180,1872,180C1824,180,1776,180,1728,180C1680,180,1632,180,1584,180C1536,180,1488,180,1440,180C1392,180,1344,180,1296,180C1248,180,1200,180,1152,180C1104,180,1056,180,1008,180C960,180,912,180,864,180C816,180,768,180,720,180C672,180,624,180,576,180C528,180,480,180,432,180C384,180,336,180,288,180C240,180,192,180,144,180C96,180,48,180,24,180L0,180Z"></path></svg>