<svg width="1440" height="82" viewBox="0 0 1440 82" fill="none" xmlns="http://www.w3.org/2000/svg">
<path d="M1440 8.13017L1424.33 17.6069C1408.65 27.1853 1377.4 45.9863 1345.87 50.1276C1314.66 54.1164 1283.27 43.4456 1252.2 37.9323C1220.67 32.5207 1189.14 32.5207 1158.07 27.109C1126.67 21.5958 1095.46 10.9249 1063.93 8.13017C1032.68 5.33542 1001.33 10.9249 969.804 13.5418C938.686 16.2603 907.203 16.2603 876.131 13.5418C844.647 10.9249 813.529 5.33543 797.536 2.71853L782 -1.05554e-06H797.673C813.346 -1.05554e-06 844.601 -1.05554e-06 876.131 -1.05554e-06C907.34 -1.05554e-06 938.732 -1.05554e-06 969.804 -1.05554e-06C1001.33 -1.05554e-06 1032.86 -1.05554e-06 1063.93 -1.05554e-06C1095.33 -1.05554e-06 1126.54 -1.05554e-06 1158.07 -1.05554e-06C1189.32 -1.05554e-06 1220.67 -1.05554e-06 1252.2 -1.05554e-06C1283.31 -1.05554e-06 1314.8 -1.05554e-06 1345.87 -1.05554e-06C1377.35 -1.05554e-06 1408.47 -1.05554e-06 1424.46 -1.05554e-06H1440V8.13017Z" fill="#01725C"/>
<path d="M0 13.072L25.5344 28.3091C51.0689 43.7096 101.989 73.9387 153.356 80.5973C204.201 87.0107 255.344 69.8537 305.967 60.9892C357.333 52.2881 408.7 52.2881 459.322 43.5871C510.466 34.7226 561.311 17.5655 612.678 13.072C663.598 8.57852 714.667 17.5655 766.033 21.7731C816.73 26.1441 868.022 26.1441 918.644 21.7731C969.937 17.5655 1020.63 8.57853 1046.69 4.37097L1072 1.46998e-06H1046.47C1020.93 1.46998e-06 970.011 1.46998e-06 918.644 1.46998e-06C867.799 1.46998e-06 816.656 1.46998e-06 766.033 1.46998e-06C714.667 1.46998e-06 663.3 1.46998e-06 612.678 1.46998e-06C561.534 1.46998e-06 510.689 1.46998e-06 459.322 1.46998e-06C408.402 1.46998e-06 357.333 1.46998e-06 305.967 1.46998e-06C255.27 1.46998e-06 203.978 1.46998e-06 153.356 1.46998e-06C102.063 1.46998e-06 51.3667 1.46998e-06 25.3111 1.46998e-06H0V13.072Z" fill="#01725C"/>
</svg>
