<svg version="1.1" id="Layer_1" xmlns="http://www.w3.org/2000/svg" xmlns:xlink="http://www.w3.org/1999/xlink" x="0px" y="0px"
	 width="100%" viewBox="0 0 4120 5580" enable-background="new 0 0 4120 5580" xml:space="preserve">
<path fill="#07CEB1" opacity="1.000000" stroke="none" 
	d="
M328.690277,3573.069580 
	C334.596100,3571.425293 338.809692,3574.430908 343.701599,3578.852783 
	C343.148438,3582.175293 342.734589,3586.048340 341.842926,3589.808350 
	C327.686005,3649.511475 317.627075,3709.893311 311.417480,3770.935303 
	C306.626465,3818.032471 303.859711,3865.197754 303.714813,3912.573242 
	C303.425476,4007.152588 316.413910,4099.764160 341.911621,4190.810059 
	C360.092621,4255.730469 381.793396,4319.275879 410.902191,4380.180176 
	C470.778351,4505.458496 557.836670,4607.993164 669.539368,4690.032227 
	C734.779480,4737.947266 804.770874,4777.689941 877.937439,4812.015625 
	C995.288147,4867.071289 1117.705322,4908.116699 1242.154907,4943.530273 
	C1322.255493,4966.324219 1402.925781,4986.864258 1484.773804,5002.326660 
	C1552.205688,5015.065430 1620.007202,5025.143066 1688.664917,5029.336914 
	C1728.645386,5031.779297 1768.557617,5032.444824 1808.529907,5031.372559 
	C1825.830566,5030.909180 1843.099731,5029.267578 1863.492676,5029.467773 
	C1887.203857,5031.082031 1908.295166,5034.289551 1928.275513,5030.916992 
	C1950.032593,5027.244141 1972.020508,5030.128906 1993.647461,5024.684570 
	C2009.541748,5020.683594 2026.653931,5021.819824 2043.001465,5019.252930 
	C2071.123291,5014.836914 2099.054199,5009.217285 2127.097412,5004.285645 
	C2182.797852,4994.490234 2237.127930,4979.152344 2290.898926,4962.112305 
	C2359.372803,4940.411621 2426.754883,4915.568359 2492.321045,4886.023438 
	C2527.484131,4870.177734 2563.131348,4855.361816 2597.915039,4838.731445 
	C2629.132324,4823.806152 2659.597168,4807.279297 2690.155273,4791.010254 
	C2719.513916,4775.379395 2748.653076,4759.329590 2777.732178,4743.182129 
	C2821.347656,4718.962402 2863.729736,4692.708496 2905.527100,4665.475586 
	C2950.097412,4636.435547 2993.991943,4606.437988 3036.294922,4574.177734 
	C3062.681641,4554.054688 3089.258301,4534.206543 3114.311035,4512.323242 
	C3135.320801,4493.971191 3157.468994,4476.898926 3176.994141,4456.892578 
	C3197.899414,4435.472168 3219.763428,4415.066406 3238.959229,4391.867188 
	C3253.754639,4373.986328 3269.127930,4356.538574 3283.943115,4338.614258 
	C3310.223389,4306.819336 3334.174561,4273.314941 3357.571289,4239.446777 
	C3373.426758,4216.494629 3387.249268,4192.145508 3402.184082,4168.549316 
	C3426.401123,4130.288086 3447.505859,4090.274658 3468.568115,4050.259521 
	C3477.544678,4033.205811 3484.558594,4015.129639 3493.226074,3997.901367 
	C3515.690674,3953.249023 3533.217773,3906.533691 3551.256104,3860.043701 
	C3557.481934,3843.998291 3562.086182,3827.323242 3567.282959,3811.389893 
	C3564.158691,3804.812012 3558.903809,3802.001465 3553.887695,3798.661133 
	C3507.381592,3767.695557 3461.048096,3736.470947 3414.520264,3705.538330 
	C3399.884766,3695.808838 3387.705078,3683.427490 3377.283203,3669.698730 
	C3357.471924,3643.601318 3353.495605,3627.808350 3356.037109,3595.202881 
	C3356.391357,3590.661133 3357.516113,3585.976318 3359.285889,3581.780273 
	C3372.786621,3549.770752 3393.981445,3523.834717 3421.708252,3502.998779 
	C3440.815918,3488.640137 3459.667725,3473.938965 3478.533691,3459.262451 
	C3507.869385,3436.440674 3537.081787,3413.460205 3566.421143,3390.643066 
	C3584.765869,3376.375977 3603.317383,3362.374023 3621.630859,3348.067139 
	C3628.082520,3343.026611 3632.278076,3337.082520 3632.385254,3327.867920 
	C3632.841064,3288.584229 3631.926270,3249.349121 3627.365967,3210.345947 
	C3624.677490,3187.352783 3620.233643,3164.539795 3615.949707,3141.764160 
	C3610.315674,3111.808594 3604.482178,3081.875000 3597.779297,3052.147217 
	C3596.106934,3044.729736 3599.085205,3034.133301 3590.627686,3030.422607 
	C3583.760742,3027.409180 3575.077881,3028.202148 3567.179443,3027.944092 
	C3553.196533,3027.487549 3538.902832,3029.212402 3525.291992,3026.844727 
	C3512.646240,3024.645508 3500.198730,3024.270264 3487.599854,3024.190430 
	C3454.268066,3023.979248 3420.931885,3024.217529 3387.603760,3023.784180 
	C3367.711670,3023.525635 3347.652588,3025.917236 3327.980957,3020.467773 
	C3324.252686,3019.434814 3320.021729,3020.181641 3316.022461,3020.165771 
	C3301.356201,3020.108154 3286.688721,3019.952393 3272.023682,3020.066895 
	C3256.042480,3020.191406 3240.242920,3019.518555 3224.488281,3016.012207 
	C3198.355225,3010.195312 3173.080566,3002.319336 3149.815918,2988.824951 
	C3137.316650,2981.574951 3127.424805,2971.848145 3123.840332,2957.377441 
	C3116.251465,2926.740479 3118.398682,2898.856201 3142.821777,2874.781006 
	C3210.711914,2807.858398 3277.857422,2740.180420 3345.190186,2672.693848 
	C3350.201172,2667.671387 3356.548340,2663.508545 3359.428467,2655.335693 
	C3354.392090,2651.550049 3349.895020,2647.758545 3345.006592,2644.566406 
	C3323.853516,2630.752930 3302.751709,2616.849609 3281.322021,2603.474365 
	C3248.585693,2583.042236 3215.405518,2563.327881 3180.670654,2546.430664 
	C3158.530518,2535.660156 3136.595703,2524.203369 3113.677002,2515.366943 
	C3087.678955,2505.343262 3060.714111,2497.809570 3034.105469,2489.396973 
	C3026.856201,2487.105225 3020.211914,2488.053223 3013.273682,2492.381836 
	C2969.278564,2519.832520 2924.927246,2546.711670 2880.828857,2573.998291 
	C2833.342285,2603.380859 2786.258789,2633.426514 2738.443359,2662.260498 
	C2724.312500,2670.781982 2708.599854,2676.994629 2693.053223,2682.757812 
	C2680.040283,2687.582031 2665.956055,2689.458252 2652.796875,2693.957520 
	C2621.925049,2704.512695 2590.137695,2704.808105 2558.161865,2703.834229 
	C2554.894531,2703.734863 2551.579834,2702.929932 2548.417969,2702.004639 
	C2527.918213,2696.007080 2511.572754,2684.463379 2499.200195,2666.761963 
	C2490.275391,2653.992676 2484.787598,2639.962646 2479.585693,2625.493896 
	C2475.927246,2615.318359 2476.410645,2606.741699 2481.275635,2596.957764 
	C2510.040283,2539.108887 2538.244873,2480.981689 2566.602539,2422.930908 
	C2569.780762,2416.424561 2572.740967,2409.812256 2575.464844,2403.972900 
	C2574.118652,2401.655762 2573.736328,2400.044922 2572.756836,2399.492188 
	C2569.913086,2397.887451 2566.886963,2396.558350 2563.831787,2395.382812 
	C2527.131836,2381.263428 2488.803223,2372.887939 2450.530273,2364.805664 
	C2423.989746,2359.201416 2397.058838,2354.675781 2369.575928,2355.681152 
	C2361.725830,2355.968262 2353.815918,2353.882324 2345.901855,2353.385742 
	C2339.327637,2352.973633 2332.686768,2352.970215 2326.112061,2353.378906 
	C2318.198486,2353.871094 2310.341309,2355.405762 2302.427979,2355.739014 
	C2291.111572,2356.215332 2279.765869,2355.956787 2268.434082,2356.115234 
	C2258.924561,2356.248047 2249.895996,2358.469482 2242.194580,2364.161621 
	C2234.725098,2369.681885 2227.582764,2375.665283 2220.497070,2381.681152 
	C2200.752930,2398.444580 2181.383301,2415.659912 2161.362061,2432.082764 
	C2136.736572,2452.282227 2111.332275,2471.534424 2086.758301,2491.794922 
	C2059.092285,2514.604736 2032.038086,2538.155029 2004.560791,2561.196045 
	C2000.024292,2565.000000 1994.940430,2568.346191 1989.671265,2571.049805 
	C1959.887939,2586.329834 1928.185669,2596.478760 1895.527344,2602.919678 
	C1882.101318,2605.567383 1867.841187,2605.639404 1854.017700,2601.294678 
	C1820.263794,2590.685303 1799.595581,2566.677002 1786.154785,2535.476318 
	C1783.932007,2530.316406 1783.280273,2523.281006 1784.802002,2517.938232 
	C1788.923706,2503.466064 1787.438354,2488.846191 1788.072510,2474.277100 
	C1788.333130,2468.289795 1787.314575,2461.920898 1789.029175,2456.392822 
	C1792.283691,2445.898193 1791.872070,2435.330811 1792.024780,2424.714355 
	C1792.359497,2401.457520 1797.879517,2378.541748 1796.479492,2355.150879 
	C1796.290283,2351.990723 1798.389648,2348.760742 1798.724731,2345.490723 
	C1800.203613,2331.055176 1801.312134,2316.596924 1798.183228,2301.367188 
	C1775.246826,2298.192139 1753.026367,2295.129150 1730.810425,2292.033936 
	C1721.627808,2290.754883 1712.474365,2289.246582 1703.273071,2288.124512 
	C1688.798950,2286.359375 1674.247559,2285.172363 1659.815063,2283.132324 
	C1633.598999,2279.426270 1607.760986,2273.282227 1581.205200,2271.653809 
	C1568.662109,2270.884766 1555.914673,2269.843018 1543.799072,2266.787109 
	C1533.184814,2264.110107 1522.690308,2264.703857 1512.138916,2263.776611 
	C1501.878906,2262.874756 1494.420044,2266.569336 1487.565918,2274.062256 
	C1466.012939,2297.623047 1442.711426,2319.442139 1421.524414,2343.486084 
	C1389.864624,2379.415039 1354.981445,2412.485107 1322.676270,2447.873047 
	C1310.054688,2461.699219 1294.571289,2467.198975 1277.807373,2471.580322 
	C1271.405762,2473.253418 1264.873901,2474.523682 1258.334961,2475.557617 
	C1240.675659,2478.350342 1223.002197,2481.080322 1205.282471,2483.446289 
	C1201.446777,2483.958496 1197.373657,2482.984619 1193.445679,2482.438232 
	C1188.859131,2481.800049 1184.338867,2480.636963 1179.742676,2480.122803 
	C1155.943848,2477.459473 1136.900513,2466.273438 1122.330322,2447.593994 
	C1111.854736,2434.163818 1102.926758,2420.029785 1111.588867,2401.927246 
	C1111.859863,2401.361084 1111.718018,2400.608643 1111.830200,2399.953613 
	C1117.645996,2366.000000 1123.312866,2332.019531 1129.341431,2298.103516 
	C1133.861572,2272.674072 1138.849609,2247.327637 1143.618774,2221.942383 
	C1143.741211,2221.291016 1143.722168,2220.614258 1143.802734,2219.953369 
	C1144.936279,2210.659180 1142.726562,2203.999756 1133.747559,2198.330811 
	C1112.970581,2185.213379 1092.825562,2171.010010 1073.083984,2156.358154 
	C1045.903442,2136.185303 1019.257874,2115.287109 992.525085,2094.517090 
	C974.691772,2080.661377 957.812073,2065.588379 940.293701,2051.416016 
	C916.955933,2032.535278 897.115479,2010.073975 873.968262,1990.999023 
	C856.129272,1976.298462 841.016418,1958.276855 825.648865,1940.677979 
	C808.607910,1921.162476 791.400574,1901.865723 775.074707,1881.691772 
	C748.601013,1848.978760 725.189941,1814.376465 706.460205,1776.752930 
	C687.767761,1739.204224 669.136169,1701.585449 651.987366,1663.320923 
	C638.682251,1633.633057 626.799622,1603.224121 615.909119,1572.558594 
	C601.460083,1531.873291 589.617371,1490.416016 582.954346,1447.543823 
	C578.580200,1419.399780 572.106995,1391.576904 571.849731,1362.902954 
	C571.831848,1360.911377 571.960938,1358.761719 571.288818,1356.958618 
	C567.208679,1346.013306 567.895935,1334.617188 568.178650,1323.345459 
	C569.211731,1282.152344 564.579956,1240.785645 571.863831,1199.781616 
	C570.649414,1171.668091 577.492004,1144.354248 581.148865,1116.823120 
	C585.852173,1081.413330 592.910522,1046.189575 601.140259,1011.402771 
	C615.815063,949.372681 631.597534,887.576965 651.841003,827.057251 
	C659.433105,804.359985 667.136047,781.671204 675.760315,759.354126 
	C690.373230,721.540039 704.957214,683.676636 721.090881,646.501221 
	C732.457214,620.311035 746.229736,595.154785 759.177368,569.663635 
	C779.078735,530.481934 802.072937,493.242737 826.997192,456.979675 
	C848.922791,425.079407 874.019836,395.927673 899.495667,367.132111 
	C927.293152,335.712372 958.143982,307.031250 990.479187,280.359344 
	C1018.607727,257.157349 1048.312256,235.730942 1078.349854,215.012238 
	C1116.698242,188.561172 1156.831299,164.900009 1198.811401,144.521545 
	C1217.989136,135.212021 1236.835815,125.148293 1256.370117,116.664032 
	C1280.131470,106.343842 1304.345093,97.026581 1328.576416,87.837906 
	C1350.320923,79.592224 1372.342285,72.073792 1394.282715,64.351692 
	C1396.107300,63.709530 1398.246704,63.961632 1401.749756,63.638733 
	C1415.220947,59.890633 1427.103394,56.006477 1439.164917,52.794430 
	C1451.842163,49.418449 1464.643066,46.462429 1477.474487,43.718903 
	C1503.779297,38.094692 1530.160522,32.826504 1556.457031,27.164944 
	C1560.249756,26.348377 1563.747925,24.164331 1567.382446,22.613138 
	C1579.690796,20.712564 1591.945068,18.288042 1604.317993,17.014750 
	C1635.035278,13.853674 1665.806641,11.218031 1699.479492,9.265295 
	C1719.944458,10.427308 1737.271729,8.409883 1754.482788,5.215538 
	C1755.044434,5.111319 1755.496826,4.418475 1756.000000,4.000013 
	C1785.416992,4.000000 1814.833984,4.000000 1847.412109,4.962486 
	C1866.671631,7.492086 1882.762939,9.145496 1898.879639,10.493879 
	C1900.505249,10.629887 1902.285034,8.922210 1903.993286,8.070129 
	C1985.803467,13.674417 2067.134766,23.047646 2147.862549,37.726231 
	C2281.867676,62.092087 2412.616699,98.587257 2541.508301,142.159653 
	C2594.521240,160.080933 2647.448242,178.191177 2699.512451,198.809509 
	C2762.735596,223.846832 2824.900635,251.237015 2886.222168,280.563507 
	C2973.425049,322.267334 3058.994873,367.113129 3142.457275,415.879822 
	C3184.441162,440.410828 3226.497070,464.940277 3267.242432,491.435394 
	C3307.108643,517.358643 3340.758545,550.811951 3372.263184,586.358582 
	C3392.328857,608.998840 3401.971680,635.180847 3399.000977,665.351501 
	C3397.432129,681.289551 3393.438721,696.840515 3386.614746,711.490234 
	C3384.364502,716.321167 3382.468506,721.431946 3379.487061,725.781860 
	C3374.289551,733.365540 3375.560303,740.313538 3378.738037,748.325012 
	C3386.345459,767.505859 3393.350830,786.940613 3400.068359,806.455566 
	C3408.156250,829.951477 3411.892090,854.279114 3412.142334,879.110291 
	C3412.296631,894.437317 3411.603516,909.791138 3412.271484,925.090149 
	C3413.158203,945.401611 3406.847900,963.058044 3393.467529,978.046021 
	C3389.469482,959.371338 3386.850342,941.691040 3384.233643,924.010437 
	C3380.927979,901.678345 3376.492920,879.603577 3369.236816,858.171448 
	C3356.425537,820.333313 3340.343750,783.842346 3323.827637,747.521240 
	C3318.086426,734.895630 3312.831543,722.048767 3307.927246,710.636108 
	C3309.029053,707.561890 3309.223877,706.137756 3309.970947,705.118408 
	C3311.538574,702.979309 3313.252686,700.904053 3315.158447,699.063049 
	C3329.005127,685.686218 3336.933105,669.375244 3341.283936,650.668579 
	C3343.325439,641.891052 3342.765381,634.116211 3341.398926,625.354675 
	C3336.799072,595.861328 3317.795410,576.987427 3295.858643,560.099060 
	C3289.623291,555.298889 3282.493408,550.947266 3275.076416,548.526550 
	C3250.822021,540.610474 3226.646729,541.197449 3203.257324,552.345215 
	C3194.904541,556.326355 3186.690430,560.597839 3178.515869,564.685303 
	C3165.618408,556.950256 3153.514404,550.084351 3141.805176,542.600464 
	C3091.393066,510.379578 3041.181152,477.845093 2990.724121,445.695068 
	C2964.365479,428.900208 2938.032715,412.080383 2909.650391,398.659485 
	C2883.812256,386.441620 2858.593750,372.921600 2832.895508,360.399323 
	C2799.383545,344.069489 2765.716309,328.055450 2732.016846,312.114746 
	C2718.191406,305.575012 2704.252686,299.229492 2690.112549,293.409760 
	C2656.932373,279.753479 2623.760010,266.051727 2590.287354,253.138962 
	C2549.984375,237.591248 2509.513672,222.449890 2468.842529,207.895676 
	C2445.078857,199.391800 2420.932129,191.860825 2396.689209,184.817261 
	C2362.263184,174.815231 2327.787354,164.849533 2292.959473,156.409882 
	C2265.301025,149.707596 2237.104248,145.200821 2209.103516,139.949371 
	C2194.137695,137.142593 2179.146973,133.300507 2164.049316,132.644592 
	C2142.133057,131.692429 2120.612793,125.900391 2098.519531,127.783768 
	C2095.237549,128.063553 2091.613037,128.203979 2088.605713,127.127167 
	C2077.594238,123.184143 2066.227539,123.853065 2054.964355,124.114082 
	C2000.449585,125.377426 1945.927734,121.337700 1891.356201,127.256050 
	C1863.738892,130.251205 1835.956665,131.988541 1808.303833,135.485352 
	C1774.052002,139.816620 1740.082275,145.901321 1706.571655,153.542221 
	C1654.150269,165.494949 1602.339722,179.873276 1551.885986,199.114365 
	C1513.897339,213.601715 1476.702393,229.539734 1440.374878,247.715775 
	C1404.033203,265.898804 1368.982666,286.240356 1334.982544,308.466187 
	C1308.822266,325.567230 1283.217651,343.482880 1259.178345,363.418884 
	C1231.562500,386.320892 1203.720581,409.004730 1178.814819,435.020599 
	C1159.496582,455.199707 1138.918945,474.159393 1121.588623,496.225494 
	C1106.018066,516.050964 1089.213379,534.949219 1074.340454,555.271790 
	C1042.466309,598.825012 1015.439514,645.295959 992.528259,694.245117 
	C977.561035,726.222107 964.125427,758.777527 952.686035,792.110352 
	C940.832214,826.650635 931.324768,861.909424 923.710999,897.657532 
	C919.982544,915.162903 915.281372,932.491516 912.288696,950.115540 
	C908.520508,972.306824 906.180054,994.737000 902.981567,1017.029358 
	C899.876709,1038.668945 896.056946,1060.217773 896.033264,1082.185059 
	C896.020325,1094.183105 896.005615,1106.183472 895.768616,1118.178345 
	C895.663940,1123.478149 895.697754,1128.933350 894.471863,1134.030273 
	C890.345337,1151.186035 890.724854,1168.788940 893.123291,1185.657104 
	C895.299805,1200.965088 895.737915,1216.091919 895.899597,1231.333252 
	C896.168213,1256.659668 896.632812,1282.020386 895.655396,1307.314087 
	C894.437988,1338.821289 899.823242,1369.616455 905.107666,1400.261841 
	C911.650757,1438.207275 922.471863,1475.241333 936.338989,1511.249878 
	C950.971619,1549.246094 969.499451,1585.268921 991.654358,1619.461060 
	C1019.973145,1663.166138 1054.797974,1701.553833 1090.058350,1739.504395 
	C1103.132568,1753.575928 1118.357910,1765.641602 1132.511719,1778.719849 
	C1143.245117,1788.637329 1153.473633,1798.960815 1165.165894,1807.980591 
	C1190.381592,1827.432739 1214.449219,1848.369141 1239.176025,1868.465210 
	C1241.518921,1870.369385 1245.199829,1870.627197 1248.120117,1871.741455 
	C1247.980591,1871.833618 1248.289795,1871.728760 1248.711670,1872.958984 
	C1251.722412,1878.115723 1255.322754,1880.109863 1260.751465,1881.088745 
	C1266.296875,1890.224487 1275.719116,1891.496826 1282.547607,1896.635864 
	C1314.893677,1920.978882 1348.096313,1944.124268 1383.039062,1964.589966 
	C1403.064209,1976.318481 1423.069824,1988.549805 1444.347412,1997.578125 
	C1498.064697,2020.371460 1552.487915,2041.501953 1606.666870,2063.202637 
	C1609.712891,2064.423096 1613.105225,2064.778809 1617.069580,2066.578613 
	C1636.009033,2075.516357 1654.178467,2083.500000 1672.468384,2091.197510 
	C1674.776367,2092.168701 1677.718140,2091.634521 1680.366333,2091.797852 
	C1680.366333,2091.797607 1680.091064,2091.917969 1680.898682,2092.858887 
	C1688.426147,2097.258789 1695.456177,2095.932129 1702.451172,2095.145508 
	C1709.051270,2094.614990 1715.656494,2093.570801 1722.250732,2093.635254 
	C1774.888672,2094.149658 1827.534546,2094.445068 1880.158325,2095.655029 
	C1931.448730,2096.833740 1982.774902,2098.005859 2033.979858,2100.990723 
	C2109.788330,2105.409912 2185.605957,2110.289795 2261.229492,2117.090088 
	C2334.171143,2123.648682 2406.928955,2132.159668 2479.484375,2142.633789 
	C2563.918457,2154.822754 2647.880127,2169.302734 2731.035400,2188.180420 
	C2858.545654,2217.127197 2983.029785,2256.078369 3105.100098,2302.923584 
	C3228.416016,2350.246338 3348.313965,2404.999512 3464.822021,2467.169678 
	C3506.549805,2489.435791 3548.471436,2511.511230 3587.261475,2538.742676 
	C3657.335938,2587.936035 3720.737305,2644.850830 3779.265381,2707.234375 
	C3822.637451,2753.463135 3862.854736,2802.294922 3899.684570,2856.911621 
	C3900.234375,2863.148193 3900.735352,2866.498047 3904.767822,2867.888184 
	C3904.767822,2867.888184 3904.207764,2867.670410 3904.121094,2869.205078 
	C3904.310303,2876.703369 3903.853760,2882.811523 3904.995117,2888.604736 
	C3908.955322,2908.711426 3914.448242,2928.463623 3917.188721,2948.878906 
	C3920.086426,2970.466064 3924.474609,2991.856934 3928.445068,3013.290527 
	C3928.886963,3015.676758 3930.850830,3017.781250 3932.071777,3021.692383 
	C3935.853271,3050.902100 3939.771973,3078.422363 3943.444824,3105.975586 
	C3945.195312,3119.106201 3946.682617,3132.279785 3947.923096,3145.468506 
	C3949.660400,3163.943604 3949.522949,3182.740967 3952.958496,3200.875488 
	C3958.063721,3227.824707 3955.355957,3255.101318 3959.169434,3282.165771 
	C3963.505859,3312.940186 3963.524414,3344.322754 3965.025391,3377.311523 
	C3964.494629,3381.173096 3964.289795,3383.162598 3964.232178,3385.156006 
	C3962.677734,3438.928223 3966.457520,3492.736816 3960.647705,3546.541260 
	C3957.738770,3573.478760 3956.364746,3600.617920 3952.315918,3627.482178 
	C3947.879395,3656.919434 3944.874756,3686.635254 3939.013672,3715.780762 
	C3928.437012,3768.376221 3917.485840,3820.940186 3902.036133,3872.421143 
	C3900.544922,3877.390381 3900.732910,3882.863281 3899.495605,3889.449219 
	C3896.268066,3900.395020 3894.062744,3910.115234 3891.033691,3919.571289 
	C3881.913574,3948.038574 3872.991943,3976.586914 3863.018799,4004.758789 
	C3851.921387,4036.105713 3839.964600,4067.154785 3828.004639,4098.187988 
	C3805.976318,4155.344727 3780.888184,4211.192383 3754.492432,4266.435059 
	C3743.591064,4289.250488 3731.100830,4311.303223 3719.510254,4333.793945 
	C3689.846680,4391.352539 3654.059814,4444.843262 3614.946777,4496.429688 
	C3588.005859,4531.962402 3558.856201,4565.554199 3529.977539,4599.368652 
	C3507.536377,4625.644531 3482.873779,4650.048828 3458.758545,4674.857422 
	C3449.987549,4683.879883 3439.477783,4691.199707 3430.569092,4700.104004 
	C3404.659668,4726.000000 3377.429199,4750.327148 3349.045898,4773.513184 
	C3317.075684,4799.629395 3284.169922,4824.429199 3250.112061,4847.683105 
	C3218.789307,4869.068848 3186.792725,4889.443359 3153.416504,4907.540039 
	C3123.003418,4924.029785 3092.839111,4941.020996 3061.972900,4956.620117 
	C3039.440674,4968.008789 3015.914795,4977.424805 2992.888184,4987.844727 
	C2944.948486,5009.539062 2895.821533,5028.245605 2845.981445,5044.972168 
	C2805.629395,5058.514648 2765.051758,5071.500488 2724.156250,5083.281250 
	C2675.026367,5097.434082 2625.745117,5111.012207 2575.599609,5121.531250 
	C2545.753662,5127.791992 2516.142578,5135.384277 2486.185791,5141.326172 
	C2475.128906,5143.519531 2464.145996,5146.094727 2453.073486,5148.201172 
	C2425.714600,5153.406250 2398.347412,5158.575195 2370.936523,5163.495117 
	C2353.962158,5166.541504 2336.946289,5169.427246 2319.869141,5171.811035 
	C2295.556885,5175.204102 2271.178467,5178.131348 2246.813721,5181.139648 
	C2227.076660,5183.577148 2207.321533,5185.867676 2187.566650,5188.157227 
	C2183.602051,5188.616699 2179.588623,5188.652832 2175.622803,5189.104004 
	C2156.506592,5191.276855 2137.437500,5193.983398 2118.275879,5195.603027 
	C2103.061523,5196.889160 2087.827637,5197.448242 2072.579590,5198.999512 
	C2043.512451,5201.956055 2014.170898,5203.418945 1984.946289,5203.377930 
	C1921.063232,5203.289062 1857.195801,5205.965820 1793.269043,5200.935547 
	C1756.883057,5198.071777 1720.409424,5196.219727 1684.006104,5192.948242 
	C1658.199463,5190.628418 1632.471924,5188.265137 1606.858276,5184.339844 
	C1584.560791,5180.922363 1561.985840,5179.088867 1539.852417,5174.878418 
	C1500.067993,5167.309570 1460.327026,5159.310547 1420.924561,5149.984375 
	C1365.280151,5136.813965 1310.208862,5121.299316 1255.660889,5104.160645 
	C1193.440063,5084.610840 1131.436035,5064.342285 1070.727173,5040.341309 
	C1025.547974,5022.479980 980.349304,5004.663574 936.339966,4984.042969 
	C896.585510,4965.416016 857.171997,4946.096680 818.458923,4925.345215 
	C779.130554,4904.263672 740.674072,4881.710938 703.101257,4857.687500 
	C658.800232,4829.361816 615.682373,4799.351074 574.922913,4766.015137 
	C546.086853,4742.431152 516.917664,4719.248535 490.684265,4692.707031 
	C465.421204,4667.146973 439.451508,4642.345215 416.081940,4614.855469 
	C396.240479,4591.516113 377.227844,4567.637207 359.422760,4542.785156 
	C338.858368,4514.081055 321.075409,4483.681641 303.807953,4452.843750 
	C276.051514,4403.273438 253.578094,4351.550781 234.837265,4298.053711 
	C222.285019,4262.222168 212.644257,4225.591797 204.877548,4188.481445 
	C196.688599,4149.353516 193.424225,4109.612305 192.575760,4069.728271 
	C192.294891,4056.525146 195.309250,4043.275635 195.419357,4030.035645 
	C195.658356,4001.300537 200.092880,3973.011963 204.995575,3944.939697 
	C213.230255,3897.789062 224.871002,3851.327148 239.096130,3805.591064 
	C259.877380,3738.776611 284.658447,3673.497070 314.520142,3610.158203 
	C320.148285,3598.220215 326.673889,3586.459473 328.690277,3573.069580 
z"/>
<path fill="#059B7F" opacity="1.000000" stroke="none" 
	d="
M4120.299805,3716.330566 
	C4120.144531,3760.025391 4112.934082,3802.975830 4106.507324,3846.000732 
	C4104.754883,3857.732178 4102.419922,3869.376709 4097.875977,3882.573730 
	C4077.426025,3884.083008 4059.451904,3884.045898 4041.478027,3884.098145 
	C4036.159424,3884.113770 4030.460205,3883.198242 4025.596191,3884.763428 
	C4012.534180,3888.966309 3999.254883,3887.787354 3986.018799,3887.881592 
	C3957.394043,3888.084717 3928.767334,3888.043701 3900.141602,3888.102539 
	C3900.732910,3882.863281 3900.544922,3877.390381 3902.036133,3872.421143 
	C3917.485840,3820.940186 3928.437012,3768.376221 3939.013672,3715.780762 
	C3944.874756,3686.635254 3947.879395,3656.919434 3952.315918,3627.482178 
	C3956.364746,3600.617920 3957.738770,3573.478760 3960.647705,3546.541260 
	C3966.457520,3492.736816 3962.677734,3438.928223 3964.232178,3385.156006 
	C3964.289795,3383.162598 3964.494629,3381.173096 3966.211182,3377.771973 
	C3971.842041,3382.184082 3975.384766,3388.452393 3980.037842,3393.744385 
	C3993.959961,3409.579102 4008.321045,3425.027588 4022.496094,3440.639893 
	C4023.826172,3442.104980 4025.047119,3443.668457 4026.331055,3445.176025 
	C4039.979980,3461.204590 4053.614990,3477.245117 4067.285645,3493.254883 
	C4081.385254,3509.766846 4095.572266,3526.203857 4109.606934,3542.770020 
	C4113.511230,3547.378418 4117.180176,3552.067627 4124.000000,3552.000000 
	C4124.000000,3590.750244 4124.000000,3629.500488 4123.035156,3671.426270 
	C4121.480469,3688.511475 4120.890137,3702.420898 4120.299805,3716.330566 
z"/>
<path fill="#037661" opacity="1.000000" stroke="none" 
	d="
M4124.000000,3550.135498 
	C4117.180176,3552.067627 4113.511230,3547.378418 4109.606934,3542.770020 
	C4095.572266,3526.203857 4081.385254,3509.766846 4067.285645,3493.254883 
	C4053.614990,3477.245117 4039.979980,3461.204590 4026.331055,3445.176025 
	C4025.047119,3443.668457 4023.826172,3442.104980 4022.496094,3440.639893 
	C4008.321045,3425.027588 3993.959961,3409.579102 3980.037842,3393.744385 
	C3975.384766,3388.452393 3971.842041,3382.184082 3966.605713,3375.901855 
	C3963.524414,3344.322754 3963.505859,3312.940186 3959.169434,3282.165771 
	C3955.355957,3255.101318 3958.063721,3227.824707 3952.958496,3200.875488 
	C3949.522949,3182.740967 3949.660400,3163.943604 3947.923096,3145.468506 
	C3946.682617,3132.279785 3945.195312,3119.106201 3943.444824,3105.975586 
	C3939.771973,3078.422363 3935.853271,3050.902100 3933.468506,3021.856445 
	C3957.913086,3034.038086 3980.849121,3047.860352 4003.994385,3061.322754 
	C4008.979492,3064.221680 4014.720947,3065.820801 4020.114014,3068.018799 
	C4032.048828,3087.407715 4039.138672,3108.966797 4047.257080,3129.992432 
	C4079.772217,3214.203125 4101.924316,3301.180908 4114.797363,3390.485352 
	C4117.547852,3409.566406 4118.451660,3428.913330 4119.852539,3451.707031 
	C4119.735840,3462.527588 4119.567871,3469.822998 4120.348633,3477.015869 
	C4120.898926,3482.083008 4122.736816,3487.010254 4124.000000,3492.000000 
	C4124.000000,3510.757080 4124.000000,3529.513916 4124.000000,3550.135498 
z"/>
<path fill="#64C1B0" opacity="1.000000" stroke="none" 
	d="
M4121.205566,3716.032959 
	C4120.890137,3702.420898 4121.480469,3688.511475 4123.035156,3673.300781 
	C4124.000000,3685.445068 4124.000000,3698.890381 4124.000000,3714.167725 
	C4124.000000,3716.000000 4122.111328,3715.735352 4121.205566,3716.032959 
z"/>
<path fill="#71B1A5" opacity="1.000000" stroke="none" 
	d="
M4124.000000,3490.183594 
	C4122.736816,3487.010254 4120.898926,3482.083008 4120.348633,3477.015869 
	C4119.567871,3469.822998 4119.735840,3462.527588 4119.878906,3453.510742 
	C4120.259277,3451.745361 4122.091797,3452.432373 4123.045898,3452.216309 
	C4124.000000,3464.122314 4124.000000,3476.244873 4124.000000,3490.183594 
z"/>
<path fill="#027660" opacity="1.000000" stroke="none" 
	d="
M1616.336426,2065.536865 
	C1613.105225,2064.778809 1609.712891,2064.423096 1606.666870,2063.202637 
	C1552.487915,2041.501953 1498.064697,2020.371460 1444.347412,1997.578125 
	C1423.069824,1988.549805 1403.064209,1976.318481 1383.039062,1964.589966 
	C1348.096313,1944.124268 1314.893677,1920.978882 1282.547607,1896.635864 
	C1275.719116,1891.496826 1266.296875,1890.224487 1260.547974,1879.728516 
	C1257.754639,1871.453369 1252.838745,1871.972900 1248.289795,1871.728760 
	C1248.289795,1871.728760 1247.980591,1871.833618 1247.949219,1870.392822 
	C1247.430908,1867.722168 1247.271973,1866.156006 1246.407837,1865.312256 
	C1232.142456,1851.386108 1217.811035,1837.526978 1203.435425,1823.714478 
	C1200.573120,1820.964355 1196.573486,1819.003540 1194.630371,1815.760742 
	C1187.290649,1803.511108 1176.440430,1794.523438 1166.542603,1784.733643 
	C1148.033325,1766.425659 1132.656616,1745.490723 1116.973755,1724.973389 
	C1100.475220,1703.388916 1086.162598,1680.096069 1071.451538,1657.192139 
	C1051.976318,1626.870850 1035.635254,1594.700928 1021.556580,1561.678589 
	C1004.356750,1521.335693 990.853027,1479.477173 981.000122,1436.678101 
	C974.468384,1408.305298 967.357544,1379.869751 967.839966,1350.359009 
	C967.861694,1349.031494 967.980164,1347.593628 967.549255,1346.387329 
	C962.473267,1332.178345 964.077820,1317.411743 963.992371,1302.828979 
	C963.824402,1274.164917 963.987122,1245.498657 964.047485,1216.833374 
	C964.057312,1212.169800 963.810669,1207.448364 964.426880,1202.853394 
	C966.712830,1185.808228 970.122009,1168.874878 971.604248,1151.769287 
	C973.962402,1124.557129 980.994751,1098.281616 986.356934,1071.689941 
	C990.023071,1053.509277 994.906921,1035.496460 1000.471985,1017.793945 
	C1010.041992,987.351868 1019.423950,956.765259 1030.980835,927.054565 
	C1045.671753,889.286255 1063.246948,852.643433 1078.089478,814.929382 
	C1091.089600,781.897034 1109.344604,751.709351 1126.291626,720.854065 
	C1140.336670,695.282532 1156.620850,670.964722 1173.743530,647.184143 
	C1190.448975,623.982666 1207.185059,600.629578 1226.756104,580.060425 
	C1260.646118,544.442017 1294.507812,508.700134 1334.304688,479.035889 
	C1367.974609,453.938538 1403.008179,431.167664 1439.448853,410.586426 
	C1477.770630,388.942657 1518.548340,372.340790 1560.138184,358.254761 
	C1610.429688,341.221558 1661.669189,327.576630 1714.319580,319.325592 
	C1745.749023,314.400146 1776.934692,308.126648 1808.900513,307.859741 
	C1810.892700,307.843109 1813.053833,308.014954 1814.846191,307.334595 
	C1826.426880,302.938721 1838.503174,304.373199 1850.434570,303.958893 
	C1869.651367,303.291687 1888.772095,304.254883 1908.086304,300.859680 
	C1923.565308,298.138672 1940.144165,299.193237 1955.874268,301.284943 
	C1965.781372,302.602264 1975.576660,303.584595 1985.525635,303.937653 
	C2009.393921,304.784729 2033.484497,301.476471 2057.080566,307.727936 
	C2058.958740,308.225525 2061.082031,308.067230 2063.059570,307.878906 
	C2085.143799,305.775848 2106.723877,311.217010 2128.552979,312.734314 
	C2153.545410,314.471405 2178.194092,320.649597 2203.147705,323.566650 
	C2242.082520,328.118103 2280.277832,336.477875 2318.213379,345.704803 
	C2354.302246,354.482605 2390.035645,364.949890 2425.479980,376.091248 
	C2470.501465,390.243011 2515.419922,404.833191 2558.997070,423.170837 
	C2590.231445,436.314514 2621.327148,449.835419 2652.913818,462.082062 
	C2695.796631,478.708496 2736.338623,500.332733 2778.036621,519.467468 
	C2803.405762,531.109009 2827.685791,545.133911 2852.388672,558.213501 
	C2871.204590,568.176086 2890.018799,578.150757 2908.633789,588.480347 
	C2919.025146,594.246460 2929.008057,600.748169 2938.445557,606.475647 
	C2939.051758,608.895813 2939.931885,610.340271 2939.607422,611.424072 
	C2934.742920,627.676758 2936.267578,644.368958 2935.863770,660.948914 
	C2935.398193,680.062561 2940.104492,697.744141 2949.146240,714.470764 
	C2955.511475,726.245483 2963.001221,737.050781 2972.485107,746.635071 
	C2997.763184,772.180542 3023.142334,797.551575 3052.533691,818.524841 
	C3068.204346,829.707214 3083.190186,841.886536 3099.180664,852.575134 
	C3124.593018,869.561523 3150.472900,885.860291 3176.379883,902.091003 
	C3191.581543,911.614807 3207.888428,919.493042 3222.509521,929.798096 
	C3247.127930,947.149536 3273.204102,961.755737 3300.511230,974.120728 
	C3324.805420,985.121460 3349.679199,994.740479 3377.300537,991.975830 
	C3379.283691,991.777344 3381.295410,991.863586 3383.293701,991.817505 
	C3374.262207,1004.935303 3360.838135,1009.993103 3345.851562,1011.729248 
	C3333.197754,1013.195129 3320.578369,1012.539246 3308.082031,1009.738586 
	C3301.691162,1008.306274 3295.203857,1007.304138 3289.417725,1006.229614 
	C3287.715088,1008.138672 3286.250977,1009.012939 3286.097412,1010.076477 
	C3285.037354,1017.414917 3284.304688,1025.193604 3277.362549,1029.419067 
	C3269.463623,1034.226807 3261.100586,1038.399048 3252.571045,1041.967651 
	C3250.004639,1043.041626 3246.096924,1041.547485 3242.995117,1040.601074 
	C3221.333496,1033.992432 3199.546631,1027.720459 3178.180664,1020.252014 
	C3169.561279,1017.239136 3161.437012,1012.152161 3153.876465,1006.878235 
	C3114.406250,979.345459 3078.671631,947.286072 3043.720459,914.364075 
	C3010.728027,883.286987 2978.065674,851.857727 2945.384521,820.452271 
	C2928.001709,803.748169 2908.668213,789.578857 2888.739258,776.185242 
	C2825.361328,733.591553 2757.068848,700.493286 2686.064453,672.974976 
	C2590.096924,635.782166 2491.066406,609.515076 2389.739746,591.605286 
	C2326.031494,580.344666 2261.950195,572.367676 2197.489990,566.994263 
	C2117.019775,560.286316 2036.403442,556.592468 1955.768677,560.666687 
	C1779.407837,569.577698 1625.404541,633.083435 1495.229004,753.113403 
	C1422.473999,820.198059 1364.176758,898.489014 1316.151978,984.639893 
	C1271.193359,1065.290039 1236.680054,1150.270874 1210.782715,1238.919434 
	C1199.658447,1276.999268 1193.909424,1315.653320 1192.566650,1355.073853 
	C1190.863647,1405.072144 1191.067505,1455.055664 1196.353638,1504.888550 
	C1201.636719,1554.691895 1210.385986,1603.793457 1225.184082,1651.762329 
	C1244.540649,1714.507690 1276.997925,1769.850464 1318.597290,1820.250000 
	C1371.186401,1883.964478 1432.926025,1937.513794 1500.193481,1985.039795 
	C1535.612061,2010.063477 1572.562500,2032.635010 1611.054688,2056.785400 
	C1613.571655,2059.166504 1614.960693,2059.332764 1616.349731,2059.498779 
	C1616.349731,2059.498779 1616.394165,2059.790283 1616.297852,2061.256836 
	C1616.246460,2063.661621 1616.291382,2064.599365 1616.336426,2065.536865 
z"/>
<path fill="#029C84" opacity="1.000000" stroke="none" 
	d="
M3384.473145,991.368408 
	C3381.295410,991.863586 3379.283691,991.777344 3377.300537,991.975830 
	C3349.679199,994.740479 3324.805420,985.121460 3300.511230,974.120728 
	C3273.204102,961.755737 3247.127930,947.149536 3222.509521,929.798096 
	C3207.888428,919.493042 3191.581543,911.614807 3176.379883,902.091003 
	C3150.472900,885.860291 3124.593018,869.561523 3099.180664,852.575134 
	C3083.190186,841.886536 3068.204346,829.707214 3052.533691,818.524841 
	C3023.142334,797.551575 2997.763184,772.180542 2972.485107,746.635071 
	C2963.001221,737.050781 2955.511475,726.245483 2949.146240,714.470764 
	C2940.104492,697.744141 2935.398193,680.062561 2935.863770,660.948914 
	C2936.267578,644.368958 2934.742920,627.676758 2939.607422,611.424072 
	C2939.931885,610.340271 2939.051758,608.895813 2938.445557,606.475647 
	C2929.008057,600.748169 2919.025146,594.246460 2908.633789,588.480347 
	C2890.018799,578.150757 2871.204590,568.176086 2852.388672,558.213501 
	C2827.685791,545.133911 2803.405762,531.109009 2778.036621,519.467468 
	C2736.338623,500.332733 2695.796631,478.708496 2652.913818,462.082062 
	C2621.327148,449.835419 2590.231445,436.314514 2558.997070,423.170837 
	C2515.419922,404.833191 2470.501465,390.243011 2425.479980,376.091248 
	C2390.035645,364.949890 2354.302246,354.482605 2318.213379,345.704803 
	C2280.277832,336.477875 2242.082520,328.118103 2203.147705,323.566650 
	C2178.194092,320.649597 2153.545410,314.471405 2128.552979,312.734314 
	C2106.723877,311.217010 2085.143799,305.775848 2063.059570,307.878906 
	C2061.082031,308.067230 2058.958740,308.225525 2057.080566,307.727936 
	C2033.484497,301.476471 2009.393921,304.784729 1985.525635,303.937653 
	C1975.576660,303.584595 1965.781372,302.602264 1955.874268,301.284943 
	C1940.144165,299.193237 1923.565308,298.138672 1908.086304,300.859680 
	C1888.772095,304.254883 1869.651367,303.291687 1850.434570,303.958893 
	C1838.503174,304.373199 1826.426880,302.938721 1814.846191,307.334595 
	C1813.053833,308.014954 1810.892700,307.843109 1808.900513,307.859741 
	C1776.934692,308.126648 1745.749023,314.400146 1714.319580,319.325592 
	C1661.669189,327.576630 1610.429688,341.221558 1560.138184,358.254761 
	C1518.548340,372.340790 1477.770630,388.942657 1439.448853,410.586426 
	C1403.008179,431.167664 1367.974609,453.938538 1334.304688,479.035889 
	C1294.507812,508.700134 1260.646118,544.442017 1226.756104,580.060425 
	C1207.185059,600.629578 1190.448975,623.982666 1173.743530,647.184143 
	C1156.620850,670.964722 1140.336670,695.282532 1126.291626,720.854065 
	C1109.344604,751.709351 1091.089600,781.897034 1078.089478,814.929382 
	C1063.246948,852.643433 1045.671753,889.286255 1030.980835,927.054565 
	C1019.423950,956.765259 1010.041992,987.351868 1000.471985,1017.793945 
	C994.906921,1035.496460 990.023071,1053.509277 986.356934,1071.689941 
	C980.994751,1098.281616 973.962402,1124.557129 971.604248,1151.769287 
	C970.122009,1168.874878 966.712830,1185.808228 964.426880,1202.853394 
	C963.810669,1207.448364 964.057312,1212.169800 964.047485,1216.833374 
	C963.987122,1245.498657 963.824402,1274.164917 963.992371,1302.828979 
	C964.077820,1317.411743 962.473267,1332.178345 967.549255,1346.387329 
	C967.980164,1347.593628 967.861694,1349.031494 967.839966,1350.359009 
	C967.357544,1379.869751 974.468384,1408.305298 981.000122,1436.678101 
	C990.853027,1479.477173 1004.356750,1521.335693 1021.556580,1561.678589 
	C1035.635254,1594.700928 1051.976318,1626.870850 1071.451538,1657.192139 
	C1086.162598,1680.096069 1100.475220,1703.388916 1116.973755,1724.973389 
	C1132.656616,1745.490723 1148.033325,1766.425659 1166.542603,1784.733643 
	C1176.440430,1794.523438 1187.290649,1803.511108 1194.630371,1815.760742 
	C1196.573486,1819.003540 1200.573120,1820.964355 1203.435425,1823.714478 
	C1217.811035,1837.526978 1232.142456,1851.386108 1246.407837,1865.312256 
	C1247.271973,1866.156006 1247.430908,1867.722168 1248.088745,1870.300781 
	C1245.199829,1870.627197 1241.518921,1870.369385 1239.176025,1868.465210 
	C1214.449219,1848.369141 1190.381592,1827.432739 1165.165894,1807.980591 
	C1153.473633,1798.960815 1143.245117,1788.637329 1132.511719,1778.719849 
	C1118.357910,1765.641602 1103.132568,1753.575928 1090.058350,1739.504395 
	C1054.797974,1701.553833 1019.973145,1663.166138 991.654358,1619.461060 
	C969.499451,1585.268921 950.971619,1549.246094 936.338989,1511.249878 
	C922.471863,1475.241333 911.650757,1438.207275 905.107666,1400.261841 
	C899.823242,1369.616455 894.437988,1338.821289 895.655396,1307.314087 
	C896.632812,1282.020386 896.168213,1256.659668 895.899597,1231.333252 
	C895.737915,1216.091919 895.299805,1200.965088 893.123291,1185.657104 
	C890.724854,1168.788940 890.345337,1151.186035 894.471863,1134.030273 
	C895.697754,1128.933350 895.663940,1123.478149 895.768616,1118.178345 
	C896.005615,1106.183472 896.020325,1094.183105 896.033264,1082.185059 
	C896.056946,1060.217773 899.876709,1038.668945 902.981567,1017.029358 
	C906.180054,994.737000 908.520508,972.306824 912.288696,950.115540 
	C915.281372,932.491516 919.982544,915.162903 923.710999,897.657532 
	C931.324768,861.909424 940.832214,826.650635 952.686035,792.110352 
	C964.125427,758.777527 977.561035,726.222107 992.528259,694.245117 
	C1015.439514,645.295959 1042.466309,598.825012 1074.340454,555.271790 
	C1089.213379,534.949219 1106.018066,516.050964 1121.588623,496.225494 
	C1138.918945,474.159393 1159.496582,455.199707 1178.814819,435.020599 
	C1203.720581,409.004730 1231.562500,386.320892 1259.178345,363.418884 
	C1283.217651,343.482880 1308.822266,325.567230 1334.982544,308.466187 
	C1368.982666,286.240356 1404.033203,265.898804 1440.374878,247.715775 
	C1476.702393,229.539734 1513.897339,213.601715 1551.885986,199.114365 
	C1602.339722,179.873276 1654.150269,165.494949 1706.571655,153.542221 
	C1740.082275,145.901321 1774.052002,139.816620 1808.303833,135.485352 
	C1835.956665,131.988541 1863.738892,130.251205 1891.356201,127.256050 
	C1945.927734,121.337700 2000.449585,125.377426 2054.964355,124.114082 
	C2066.227539,123.853065 2077.594238,123.184143 2088.605713,127.127167 
	C2091.613037,128.203979 2095.237549,128.063553 2098.519531,127.783768 
	C2120.612793,125.900391 2142.133057,131.692429 2164.049316,132.644592 
	C2179.146973,133.300507 2194.137695,137.142593 2209.103516,139.949371 
	C2237.104248,145.200821 2265.301025,149.707596 2292.959473,156.409882 
	C2327.787354,164.849533 2362.263184,174.815231 2396.689209,184.817261 
	C2420.932129,191.860825 2445.078857,199.391800 2468.842529,207.895676 
	C2509.513672,222.449890 2549.984375,237.591248 2590.287354,253.138962 
	C2623.760010,266.051727 2656.932373,279.753479 2690.112549,293.409760 
	C2704.252686,299.229492 2718.191406,305.575012 2732.016846,312.114746 
	C2765.716309,328.055450 2799.383545,344.069489 2832.895508,360.399323 
	C2858.593750,372.921600 2883.812256,386.441620 2909.650391,398.659485 
	C2938.032715,412.080383 2964.365479,428.900208 2990.724121,445.695068 
	C3041.181152,477.845093 3091.393066,510.379578 3141.805176,542.600464 
	C3153.514404,550.084351 3165.618408,556.950256 3178.515869,564.685303 
	C3186.690430,560.597839 3194.904541,556.326355 3203.257324,552.345215 
	C3226.646729,541.197449 3250.822021,540.610474 3275.076416,548.526550 
	C3282.493408,550.947266 3289.623291,555.298889 3295.858643,560.099060 
	C3317.795410,576.987427 3336.799072,595.861328 3341.398926,625.354675 
	C3342.765381,634.116211 3343.325439,641.891052 3341.283936,650.668579 
	C3336.933105,669.375244 3329.005127,685.686218 3315.158447,699.063049 
	C3313.252686,700.904053 3311.538574,702.979309 3309.970947,705.118408 
	C3309.223877,706.137756 3309.029053,707.561890 3307.927246,710.636108 
	C3312.831543,722.048767 3318.086426,734.895630 3323.827637,747.521240 
	C3340.343750,783.842346 3356.425537,820.333313 3369.236816,858.171448 
	C3376.492920,879.603577 3380.927979,901.678345 3384.233643,924.010437 
	C3386.850342,941.691040 3389.469482,959.371338 3392.299316,978.788086 
	C3390.224609,983.989502 3387.938477,987.454407 3384.473145,991.368408 
M3173.650146,692.217834 
	C3195.274170,711.861755 3217.154541,712.380127 3239.532959,694.018250 
	C3251.322754,684.344238 3263.008545,674.481323 3275.387451,665.604736 
	C3287.026611,657.258423 3292.827881,646.166260 3294.929199,632.472107 
	C3298.115723,611.704468 3282.309082,587.988281 3261.599854,584.783325 
	C3245.864990,582.348206 3229.549072,580.795593 3217.726562,595.810181 
	C3216.147705,597.815247 3213.401367,598.859985 3211.361816,600.550110 
	C3199.104492,610.708618 3186.854736,620.877197 3174.689453,631.145569 
	C3169.552979,635.481323 3165.931641,640.681702 3163.578369,647.270691 
	C3157.850342,663.308411 3161.295410,677.192261 3173.650146,692.217834 
z"/>
<path fill="#0A9E83" opacity="1.000000" stroke="none" 
	d="
M4020.064453,3066.530273 
	C4014.720947,3065.820801 4008.979492,3064.221680 4003.994385,3061.322754 
	C3980.849121,3047.860352 3957.913086,3034.038086 3933.505371,3020.180420 
	C3930.850830,3017.781250 3928.886963,3015.676758 3928.445068,3013.290527 
	C3924.474609,2991.856934 3920.086426,2970.466064 3917.188721,2948.878906 
	C3914.448242,2928.463623 3908.955322,2908.711426 3904.995117,2888.604736 
	C3903.853760,2882.811523 3904.310303,2876.703369 3904.272949,2868.945801 
	C3911.509033,2868.243652 3913.512695,2874.528320 3916.722412,2879.304932 
	C3944.482666,2920.617432 3970.035156,2963.260254 3992.552734,3007.659180 
	C4002.141602,3026.566162 4010.886230,3045.901367 4020.064453,3066.530273 
z"/>
<path fill="#25A08A" opacity="1.000000" stroke="none" 
	d="
M1617.069580,2066.578613 
	C1616.291382,2064.599365 1616.246460,2063.661621 1616.162842,2061.315918 
	C1619.156372,2060.519043 1622.512207,2060.493408 1625.168579,2061.843506 
	C1643.092163,2070.955811 1660.867798,2080.359375 1679.528809,2090.733154 
	C1677.718140,2091.634521 1674.776367,2092.168701 1672.468384,2091.197510 
	C1654.178467,2083.500000 1636.009033,2075.516357 1617.069580,2066.578613 
z"/>
<path fill="#25A08A" opacity="1.000000" stroke="none" 
	d="
M1700.978516,2094.526855 
	C1695.456177,2095.932129 1688.426147,2097.258789 1680.859131,2092.713867 
	C1686.510010,2092.388184 1693.007935,2093.148193 1700.978516,2094.526855 
z"/>
<path fill="#0A9E83" opacity="1.000000" stroke="none" 
	d="
M3904.772461,2866.594482 
	C3900.735352,2866.498047 3900.234375,2863.148193 3899.981934,2858.280273 
	C3901.468262,2859.762451 3903.122559,2862.531738 3904.772461,2866.594482 
z"/>
<path fill="#61AA9B" opacity="1.000000" stroke="none" 
	d="
M1615.598755,2058.976074 
	C1614.960693,2059.332764 1613.571655,2059.166504 1611.894775,2057.880859 
	C1612.736084,2057.231201 1613.816406,2057.795410 1615.598755,2058.976074 
z"/>
<path fill="#029C84" opacity="1.000000" stroke="none" 
	d="
M1400.239746,63.798225 
	C1398.246704,63.961632 1396.107300,63.709530 1394.282715,64.351692 
	C1372.342285,72.073792 1350.320923,79.592224 1328.576416,87.837906 
	C1304.345093,97.026581 1280.131470,106.343842 1256.370117,116.664032 
	C1236.835815,125.148293 1217.989136,135.212021 1198.811401,144.521545 
	C1156.831299,164.900009 1116.698242,188.561172 1078.349854,215.012238 
	C1048.312256,235.730942 1018.607727,257.157349 990.479187,280.359344 
	C958.143982,307.031250 927.293152,335.712372 899.495667,367.132111 
	C874.019836,395.927673 848.922791,425.079407 826.997192,456.979675 
	C802.072937,493.242737 779.078735,530.481934 759.177368,569.663635 
	C746.229736,595.154785 732.457214,620.311035 721.090881,646.501221 
	C704.957214,683.676636 690.373230,721.540039 675.760315,759.354126 
	C667.136047,781.671204 659.433105,804.359985 651.841003,827.057251 
	C631.597534,887.576965 615.815063,949.372681 601.140259,1011.402771 
	C592.910522,1046.189575 585.852173,1081.413330 581.148865,1116.823120 
	C577.492004,1144.354248 570.649414,1171.668091 571.863831,1199.781616 
	C564.579956,1240.785645 569.211731,1282.152344 568.178650,1323.345459 
	C567.895935,1334.617188 567.208679,1346.013306 571.288818,1356.958618 
	C571.960938,1358.761719 571.831848,1360.911377 571.849731,1362.902954 
	C572.106995,1391.576904 578.580200,1419.399780 582.954346,1447.543823 
	C589.617371,1490.416016 601.460083,1531.873291 615.909119,1572.558594 
	C626.799622,1603.224121 638.682251,1633.633057 651.987366,1663.320923 
	C669.136169,1701.585449 687.767761,1739.204224 706.460205,1776.752930 
	C725.189941,1814.376465 748.601013,1848.978760 775.074707,1881.691772 
	C791.400574,1901.865723 808.607910,1921.162476 825.648865,1940.677979 
	C841.016418,1958.276855 856.129272,1976.298462 873.968262,1990.999023 
	C897.115479,2010.073975 916.955933,2032.535278 940.293701,2051.416016 
	C957.812073,2065.588379 974.691772,2080.661377 992.525085,2094.517090 
	C1019.257874,2115.287109 1045.903442,2136.185303 1073.083984,2156.358154 
	C1092.825562,2171.010010 1112.970581,2185.213379 1133.747559,2198.330811 
	C1142.726562,2203.999756 1144.936279,2210.659180 1143.802734,2219.953369 
	C1143.722168,2220.614258 1143.741211,2221.291016 1143.618774,2221.942383 
	C1138.849609,2247.327637 1133.861572,2272.674072 1129.341431,2298.103516 
	C1123.312866,2332.019531 1117.645996,2366.000000 1111.830200,2399.953613 
	C1111.718018,2400.608643 1111.859863,2401.361084 1111.588867,2401.927246 
	C1102.926758,2420.029785 1111.854736,2434.163818 1122.330322,2447.593994 
	C1136.900513,2466.273438 1155.943848,2477.459473 1179.742676,2480.122803 
	C1184.338867,2480.636963 1188.859131,2481.800049 1193.445679,2482.438232 
	C1197.373657,2482.984619 1201.446777,2483.958496 1205.282471,2483.446289 
	C1223.002197,2481.080322 1240.675659,2478.350342 1258.334961,2475.557617 
	C1264.873901,2474.523682 1271.405762,2473.253418 1277.807373,2471.580322 
	C1294.571289,2467.198975 1310.054688,2461.699219 1322.676270,2447.873047 
	C1354.981445,2412.485107 1389.864624,2379.415039 1421.524414,2343.486084 
	C1442.711426,2319.442139 1466.012939,2297.623047 1487.565918,2274.062256 
	C1494.420044,2266.569336 1501.878906,2262.874756 1512.138916,2263.776611 
	C1522.690308,2264.703857 1533.184814,2264.110107 1543.799072,2266.787109 
	C1555.914673,2269.843018 1568.662109,2270.884766 1581.205200,2271.653809 
	C1607.760986,2273.282227 1633.598999,2279.426270 1659.815063,2283.132324 
	C1674.247559,2285.172363 1688.798950,2286.359375 1703.273071,2288.124512 
	C1712.474365,2289.246582 1721.627808,2290.754883 1730.810425,2292.033936 
	C1753.026367,2295.129150 1775.246826,2298.192139 1798.183228,2301.367188 
	C1801.312134,2316.596924 1800.203613,2331.055176 1798.724731,2345.490723 
	C1798.389648,2348.760742 1796.290283,2351.990723 1796.479492,2355.150879 
	C1797.879517,2378.541748 1792.359497,2401.457520 1792.024780,2424.714355 
	C1791.872070,2435.330811 1792.283691,2445.898193 1789.029175,2456.392822 
	C1787.314575,2461.920898 1788.333130,2468.289795 1788.072510,2474.277100 
	C1787.438354,2488.846191 1788.923706,2503.466064 1784.802002,2517.938232 
	C1783.280273,2523.281006 1783.932007,2530.316406 1786.154785,2535.476318 
	C1799.595581,2566.677002 1820.263794,2590.685303 1854.017700,2601.294678 
	C1867.841187,2605.639404 1882.101318,2605.567383 1895.527344,2602.919678 
	C1928.185669,2596.478760 1959.887939,2586.329834 1989.671265,2571.049805 
	C1994.940430,2568.346191 2000.024292,2565.000000 2004.560791,2561.196045 
	C2032.038086,2538.155029 2059.092285,2514.604736 2086.758301,2491.794922 
	C2111.332275,2471.534424 2136.736572,2452.282227 2161.362061,2432.082764 
	C2181.383301,2415.659912 2200.752930,2398.444580 2220.497070,2381.681152 
	C2227.582764,2375.665283 2234.725098,2369.681885 2242.194580,2364.161621 
	C2249.895996,2358.469482 2258.924561,2356.248047 2268.434082,2356.115234 
	C2279.765869,2355.956787 2291.111572,2356.215332 2302.427979,2355.739014 
	C2310.341309,2355.405762 2318.198486,2353.871094 2326.112061,2353.378906 
	C2332.686768,2352.970215 2339.327637,2352.973633 2345.901855,2353.385742 
	C2353.815918,2353.882324 2361.725830,2355.968262 2369.575928,2355.681152 
	C2397.058838,2354.675781 2423.989746,2359.201416 2450.530273,2364.805664 
	C2488.803223,2372.887939 2527.131836,2381.263428 2563.831787,2395.382812 
	C2566.886963,2396.558350 2569.913086,2397.887451 2572.756836,2399.492188 
	C2573.736328,2400.044922 2574.118652,2401.655762 2575.464844,2403.972900 
	C2572.740967,2409.812256 2569.780762,2416.424561 2566.602539,2422.930908 
	C2538.244873,2480.981689 2510.040283,2539.108887 2481.275635,2596.957764 
	C2476.410645,2606.741699 2475.927246,2615.318359 2479.585693,2625.493896 
	C2484.787598,2639.962646 2490.275391,2653.992676 2499.200195,2666.761963 
	C2511.572754,2684.463379 2527.918213,2696.007080 2548.417969,2702.004639 
	C2551.579834,2702.929932 2554.894531,2703.734863 2558.161865,2703.834229 
	C2590.137695,2704.808105 2621.925049,2704.512695 2652.796875,2693.957520 
	C2665.956055,2689.458252 2680.040283,2687.582031 2693.053223,2682.757812 
	C2708.599854,2676.994629 2724.312500,2670.781982 2738.443359,2662.260498 
	C2786.258789,2633.426514 2833.342285,2603.380859 2880.828857,2573.998291 
	C2924.927246,2546.711670 2969.278564,2519.832520 3013.273682,2492.381836 
	C3020.211914,2488.053223 3026.856201,2487.105225 3034.105469,2489.396973 
	C3060.714111,2497.809570 3087.678955,2505.343262 3113.677002,2515.366943 
	C3136.595703,2524.203369 3158.530518,2535.660156 3180.670654,2546.430664 
	C3215.405518,2563.327881 3248.585693,2583.042236 3281.322021,2603.474365 
	C3302.751709,2616.849609 3323.853516,2630.752930 3345.006592,2644.566406 
	C3349.895020,2647.758545 3354.392090,2651.550049 3359.428467,2655.335693 
	C3356.548340,2663.508545 3350.201172,2667.671387 3345.190186,2672.693848 
	C3277.857422,2740.180420 3210.711914,2807.858398 3142.821777,2874.781006 
	C3118.398682,2898.856201 3116.251465,2926.740479 3123.840332,2957.377441 
	C3127.424805,2971.848145 3137.316650,2981.574951 3149.815918,2988.824951 
	C3173.080566,3002.319336 3198.355225,3010.195312 3224.488281,3016.012207 
	C3240.242920,3019.518555 3256.042480,3020.191406 3272.023682,3020.066895 
	C3286.688721,3019.952393 3301.356201,3020.108154 3316.022461,3020.165771 
	C3320.021729,3020.181641 3324.252686,3019.434814 3327.980957,3020.467773 
	C3347.652588,3025.917236 3367.711670,3023.525635 3387.603760,3023.784180 
	C3420.931885,3024.217529 3454.268066,3023.979248 3487.599854,3024.190430 
	C3500.198730,3024.270264 3512.646240,3024.645508 3525.291992,3026.844727 
	C3538.902832,3029.212402 3553.196533,3027.487549 3567.179443,3027.944092 
	C3575.077881,3028.202148 3583.760742,3027.409180 3590.627686,3030.422607 
	C3599.085205,3034.133301 3596.106934,3044.729736 3597.779297,3052.147217 
	C3604.482178,3081.875000 3610.315674,3111.808594 3615.949707,3141.764160 
	C3620.233643,3164.539795 3624.677490,3187.352783 3627.365967,3210.345947 
	C3631.926270,3249.349121 3632.841064,3288.584229 3632.385254,3327.867920 
	C3632.278076,3337.082520 3628.082520,3343.026611 3621.630859,3348.067139 
	C3603.317383,3362.374023 3584.765869,3376.375977 3566.421143,3390.643066 
	C3537.081787,3413.460205 3507.869385,3436.440674 3478.533691,3459.262451 
	C3459.667725,3473.938965 3440.815918,3488.640137 3421.708252,3502.998779 
	C3393.981445,3523.834717 3372.786621,3549.770752 3359.285889,3581.780273 
	C3357.516113,3585.976318 3356.391357,3590.661133 3356.037109,3595.202881 
	C3353.495605,3627.808350 3357.471924,3643.601318 3377.283203,3669.698730 
	C3387.705078,3683.427490 3399.884766,3695.808838 3414.520264,3705.538330 
	C3461.048096,3736.470947 3507.381592,3767.695557 3553.887695,3798.661133 
	C3558.903809,3802.001465 3564.158691,3804.812012 3567.282959,3811.389893 
	C3562.086182,3827.323242 3557.481934,3843.998291 3551.256104,3860.043701 
	C3533.217773,3906.533691 3515.690674,3953.249023 3493.226074,3997.901367 
	C3484.558594,4015.129639 3477.544678,4033.205811 3468.568115,4050.259521 
	C3447.505859,4090.274658 3426.401123,4130.288086 3402.184082,4168.549316 
	C3387.249268,4192.145508 3373.426758,4216.494629 3357.571289,4239.446777 
	C3334.174561,4273.314941 3310.223389,4306.819336 3283.943115,4338.614258 
	C3269.127930,4356.538574 3253.754639,4373.986328 3238.959229,4391.867188 
	C3219.763428,4415.066406 3197.899414,4435.472168 3176.994141,4456.892578 
	C3157.468994,4476.898926 3135.320801,4493.971191 3114.311035,4512.323242 
	C3089.258301,4534.206543 3062.681641,4554.054688 3036.294922,4574.177734 
	C2993.991943,4606.437988 2950.097412,4636.435547 2905.527100,4665.475586 
	C2863.729736,4692.708496 2821.347656,4718.962402 2777.732178,4743.182129 
	C2748.653076,4759.329590 2719.513916,4775.379395 2690.155273,4791.010254 
	C2659.597168,4807.279297 2629.132324,4823.806152 2597.915039,4838.731445 
	C2563.131348,4855.361816 2527.484131,4870.177734 2492.321045,4886.023438 
	C2426.754883,4915.568359 2359.372803,4940.411621 2290.898926,4962.112305 
	C2237.127930,4979.152344 2182.797852,4994.490234 2127.097412,5004.285645 
	C2099.054199,5009.217285 2071.123291,5014.836914 2043.001465,5019.252930 
	C2026.653931,5021.819824 2009.541748,5020.683594 1993.647461,5024.684570 
	C1972.020508,5030.128906 1950.032593,5027.244141 1928.275513,5030.916992 
	C1908.295166,5034.289551 1887.203857,5031.082031 1865.244873,5029.803711 
	C1896.764771,5023.640137 1929.806519,5019.310059 1962.487305,5013.085938 
	C2048.877686,4996.632812 2130.188477,4965.628906 2208.181396,4925.420898 
	C2294.397461,4880.973145 2374.099121,4826.504883 2450.577637,4767.219727 
	C2486.380371,4739.465820 2521.746094,4711.058594 2556.070068,4681.506836 
	C2610.803955,4634.382812 2658.613037,4580.580566 2702.733643,4523.506836 
	C2757.485596,4452.681152 2805.407959,4377.478027 2848.185059,4296.275391 
	C2850.909424,4293.665039 2851.463867,4292.472656 2851.673096,4291.119629 
	C2851.673096,4291.119629 2851.666748,4291.821777 2852.706055,4291.376953 
	C2861.411865,4286.877930 2864.235596,4279.178711 2867.873535,4272.108398 
	C2896.806396,4215.873047 2922.649902,4158.223633 2946.038086,4099.490723 
	C2961.533936,4060.577637 2973.815430,4020.612061 2984.900146,3980.188965 
	C2994.235352,3946.146240 2999.692871,3911.481689 3003.243164,3876.642334 
	C3005.453369,3854.956787 3006.541260,3832.967773 3007.417480,3811.145508 
	C3008.425537,3786.041992 3008.399414,3760.875488 3004.950684,3735.534180 
	C3001.845703,3712.718506 3003.883545,3689.141113 3000.064697,3666.109619 
	C2999.741211,3664.158936 3000.036377,3662.113281 2999.923584,3660.118652 
	C2999.773926,3657.461426 2999.665527,3654.786621 2999.263184,3652.161621 
	C2996.758545,3635.813721 2994.183350,3619.476318 2991.613525,3603.138184 
	C2991.166748,3600.296387 2990.057373,3598.158447 2985.883057,3599.047607 
	C2982.483643,3605.585205 2984.561279,3613.003662 2984.090820,3620.091309 
	C2983.430664,3630.034668 2983.345459,3640.017578 2982.620605,3649.954590 
	C2982.092285,3657.197998 2980.635010,3664.373047 2980.101318,3671.615967 
	C2978.492920,3693.441895 2977.140869,3715.286621 2975.658203,3737.121826 
	C2975.568604,3738.441650 2975.145508,3739.735352 2974.987549,3741.054443 
	C2973.966064,3749.585938 2972.888916,3758.112061 2972.008789,3766.658447 
	C2971.532471,3771.286133 2971.761230,3776.003662 2971.066895,3780.589111 
	C2967.502441,3804.133057 2963.931152,3827.678711 2959.989746,3851.161133 
	C2956.704834,3870.734375 2953.219971,3890.285156 2949.260986,3909.731201 
	C2942.753418,3941.697754 2932.202148,3972.401611 2919.964111,4002.618164 
	C2906.745605,4035.254150 2892.509766,4067.453369 2876.255615,4098.628906 
	C2860.284912,4129.260254 2842.267334,4158.819336 2825.575439,4189.084473 
	C2820.181641,4198.864258 2812.749268,4205.645996 2802.958008,4210.729980 
	C2752.604980,4236.875977 2700.424561,4258.245117 2645.023682,4271.032715 
	C2610.730957,4278.948730 2576.206543,4285.459961 2540.681641,4284.093750 
	C2525.430664,4283.507324 2510.348145,4282.676270 2495.104248,4280.661621 
	C2463.973145,4276.547852 2433.679932,4268.933105 2404.288574,4259.028809 
	C2360.203369,4244.173340 2317.034180,4226.507324 2276.083496,4204.016602 
	C2277.728271,4196.936523 2278.893555,4189.701660 2281.113525,4182.806641 
	C2286.418701,4166.330566 2292.289062,4150.036621 2297.809326,4133.628418 
	C2312.742188,4089.241699 2337.617920,4050.842773 2369.735596,4017.251953 
	C2380.466064,4006.029297 2385.500244,3993.711914 2388.406982,3978.866943 
	C2405.656494,3890.777100 2410.276611,3801.808350 2408.480469,3712.325684 
	C2408.401611,3708.394287 2407.885010,3704.471680 2407.598877,3700.875977 
	C2401.058838,3697.230469 2396.914795,3701.753174 2392.537598,3704.242432 
	C2347.353516,3729.937256 2301.477783,3754.299805 2254.630127,3776.840088 
	C2213.181885,3796.782715 2171.026855,3815.050049 2127.629150,3830.302734 
	C2089.831055,3843.587646 2050.719482,3851.835449 2011.483398,3859.555176 
	C1943.474487,3872.936035 1874.887451,3882.495361 1806.131958,3890.955811 
	C1796.879395,3892.094482 1787.548218,3892.595459 1774.652344,3892.886719 
	C1760.553711,3890.992188 1750.094604,3889.045654 1739.551392,3888.320557 
	C1711.747192,3886.409180 1684.509399,3880.988770 1657.098389,3876.403809 
	C1615.157349,3869.388916 1574.402344,3857.745117 1533.485962,3846.648193 
	C1516.322510,3841.992920 1499.223267,3837.101562 1480.648438,3831.913574 
	C1474.530762,3838.668945 1468.416016,3844.797119 1463.018555,3851.502930 
	C1449.281616,3868.569336 1436.491089,3886.314941 1425.546509,3905.354492 
	C1399.758911,3950.215576 1392.533691,3997.315186 1408.347534,4047.161133 
	C1413.156494,4062.319336 1418.315674,4077.371094 1423.565186,4092.384033 
	C1439.022461,4136.589355 1461.955322,4177.082520 1486.314331,4216.772461 
	C1498.470459,4236.579590 1511.991699,4255.546387 1524.740601,4274.994629 
	C1528.289429,4280.408203 1533.098267,4285.622559 1530.017822,4294.679199 
	C1514.033325,4298.269043 1497.419678,4302.500488 1480.604980,4305.662109 
	C1453.957886,4310.672852 1427.776001,4318.130859 1400.576294,4320.333984 
	C1388.738037,4321.292969 1377.032593,4323.842285 1365.250366,4325.555664 
	C1350.204956,4327.744141 1335.199707,4330.873047 1320.074341,4331.688477 
	C1298.226318,4332.866211 1276.673340,4338.298340 1254.612305,4336.187988 
	C1252.659302,4336.000977 1250.465576,4336.044434 1248.682129,4336.743164 
	C1237.765747,4341.018555 1226.371582,4339.840332 1215.106812,4339.884277 
	C1189.794067,4339.982910 1164.480103,4339.997559 1139.168091,4339.835449 
	C1133.223022,4339.797363 1127.275391,4339.002441 1121.343140,4338.412598 
	C1114.108154,4337.692871 1106.902588,4336.633301 1099.656982,4336.075684 
	C1093.690918,4335.616211 1087.567383,4336.369141 1081.718018,4335.378418 
	C1061.505493,4331.954590 1041.372559,4328.054688 1021.227234,4324.241699 
	C977.520264,4315.969238 934.753845,4304.784668 892.856873,4289.286133 
	C852.895142,4274.502930 813.787170,4258.098145 775.404236,4239.755371 
	C771.249634,4237.770020 766.675110,4236.664062 762.295410,4235.149902 
	C763.253845,4229.966309 763.628540,4224.590820 765.263977,4219.630371 
	C777.392456,4182.842285 792.814575,4147.496094 811.827209,4113.703125 
	C831.711853,4078.359619 858.004272,4048.610596 889.536743,4023.329834 
	C895.250305,4018.749023 901.027832,4014.248291 907.509460,4009.131348 
	C907.876282,4005.122803 908.674805,4000.552979 908.656189,3995.986084 
	C908.291870,3906.688965 907.797546,3817.392578 907.450806,3728.095215 
	C907.419067,3719.934570 906.544006,3712.608887 900.942383,3705.817871 
	C881.697021,3682.488037 872.410583,3654.823975 868.464966,3625.333740 
	C867.076416,3614.955322 863.021729,3606.588867 856.961792,3598.289795 
	C787.571289,3503.256836 728.594360,3402.127686 681.010132,3294.485596 
	C647.513000,3218.710449 621.231140,3140.538330 606.279419,3058.858643 
	C598.099487,3014.172363 594.930054,2969.044189 594.888062,2923.614258 
	C594.821228,2851.364990 603.168030,2780.053467 617.365906,2709.325195 
	C630.233459,2645.223877 647.394043,2582.322510 669.776978,2520.867188 
	C671.110352,2517.206299 671.912415,2513.351562 673.110779,2509.052002 
	C668.192566,2503.955566 663.702271,2499.142334 659.043091,2494.498291 
	C563.810486,2399.580078 479.498352,2295.865967 407.858459,2182.006104 
	C364.466095,2113.041016 327.108765,2040.993286 298.442963,1964.590210 
	C275.417969,1903.221436 259.491852,1840.160522 251.283310,1775.041382 
	C242.595337,1706.118896 239.425171,1636.976440 241.433472,1567.625244 
	C243.150085,1508.346558 247.853745,1449.263062 254.368988,1390.279297 
	C263.740295,1305.438965 278.325958,1221.525391 295.129974,1137.893188 
	C304.505554,1091.231567 319.906403,1046.676880 337.893616,1002.895752 
	C400.819489,849.733582 483.156677,707.881836 586.092651,578.065125 
	C695.724915,439.803406 825.836731,324.996185 977.301819,234.221283 
	C1064.995972,181.665085 1156.267700,136.788666 1252.154175,101.358742 
	C1298.406982,84.268417 1345.389404,69.422249 1395.067383,57.917465 
	C1398.077515,60.453362 1399.158569,62.125801 1400.239746,63.798225 
z"/>
<path fill="#027660" opacity="1.000000" stroke="none" 
	d="
M11.434147,4201.837891 
	C11.415478,4183.957520 11.692153,4167.707520 11.565176,4149.625977 
	C11.519954,4142.292480 11.878382,4136.790527 12.714218,4128.977051 
	C12.973382,4124.408691 12.755135,4122.150879 12.536892,4119.893555 
	C14.488293,4106.088379 16.573151,4092.300293 18.368023,4078.474609 
	C26.104870,4018.876953 41.964439,3961.292969 61.845249,3904.766846 
	C77.514938,3860.213867 96.895348,3817.229736 117.387764,3774.677979 
	C135.495972,3737.077148 160.251282,3704.622803 188.471756,3674.220459 
	C227.885101,3631.759277 273.388855,3597.934326 327.234314,3573.185791 
	C326.673889,3586.459473 320.148285,3598.220215 314.520142,3610.158203 
	C284.658447,3673.497070 259.877380,3738.776611 239.096130,3805.591064 
	C224.871002,3851.327148 213.230255,3897.789062 204.995575,3944.939697 
	C200.092880,3973.011963 195.658356,4001.300537 195.419357,4030.035645 
	C195.309250,4043.275635 192.294891,4056.525146 192.575760,4069.728271 
	C193.424225,4109.612305 196.688599,4149.353516 204.877548,4188.481445 
	C212.644257,4225.591797 222.285019,4262.222168 234.837265,4298.053711 
	C253.578094,4351.550781 276.051514,4403.273438 303.807953,4452.843750 
	C321.075409,4483.681641 338.858368,4514.081055 359.422760,4542.785156 
	C377.227844,4567.637207 396.240479,4591.516113 416.081940,4614.855469 
	C439.451508,4642.345215 465.421204,4667.146973 490.684265,4692.707031 
	C516.917664,4719.248535 546.086853,4742.431152 574.922913,4766.015137 
	C615.682373,4799.351074 658.800232,4829.361816 703.101257,4857.687500 
	C740.674072,4881.710938 779.130554,4904.263672 818.458923,4925.345215 
	C857.171997,4946.096680 896.585510,4965.416016 936.339966,4984.042969 
	C980.349304,5004.663574 1025.547974,5022.479980 1070.727173,5040.341309 
	C1131.436035,5064.342285 1193.440063,5084.610840 1255.660889,5104.160645 
	C1310.208862,5121.299316 1365.280151,5136.813965 1420.924561,5149.984375 
	C1460.327026,5159.310547 1500.067993,5167.309570 1539.852417,5174.878418 
	C1561.985840,5179.088867 1584.560791,5180.922363 1606.858276,5184.339844 
	C1632.471924,5188.265137 1658.199463,5190.628418 1684.006104,5192.948242 
	C1720.409424,5196.219727 1756.883057,5198.071777 1793.269043,5200.935547 
	C1857.195801,5205.965820 1921.063232,5203.289062 1984.946289,5203.377930 
	C2014.170898,5203.418945 2043.512451,5201.956055 2072.579590,5198.999512 
	C2087.827637,5197.448242 2103.061523,5196.889160 2118.275879,5195.603027 
	C2137.437500,5193.983398 2156.506592,5191.276855 2175.622803,5189.104004 
	C2179.588623,5188.652832 2183.602051,5188.616699 2187.566650,5188.157227 
	C2207.321533,5185.867676 2227.076660,5183.577148 2246.813721,5181.139648 
	C2271.178467,5178.131348 2295.556885,5175.204102 2319.869141,5171.811035 
	C2336.946289,5169.427246 2353.962158,5166.541504 2370.936523,5163.495117 
	C2398.347412,5158.575195 2425.714600,5153.406250 2453.073486,5148.201172 
	C2464.145996,5146.094727 2475.128906,5143.519531 2486.185791,5141.326172 
	C2516.142578,5135.384277 2545.753662,5127.791992 2575.599609,5121.531250 
	C2625.745117,5111.012207 2675.026367,5097.434082 2724.156250,5083.281250 
	C2765.051758,5071.500488 2805.629395,5058.514648 2845.981445,5044.972168 
	C2895.821533,5028.245605 2944.948486,5009.539062 2992.888184,4987.844727 
	C3015.914795,4977.424805 3039.440674,4968.008789 3061.972900,4956.620117 
	C3092.839111,4941.020996 3123.003418,4924.029785 3153.416504,4907.540039 
	C3186.792725,4889.443359 3218.789307,4869.068848 3250.112061,4847.683105 
	C3284.169922,4824.429199 3317.075684,4799.629395 3349.045898,4773.513184 
	C3377.429199,4750.327148 3404.659668,4726.000000 3430.569092,4700.104004 
	C3439.477783,4691.199707 3449.987549,4683.879883 3458.758545,4674.857422 
	C3482.873779,4650.048828 3507.536377,4625.644531 3529.977539,4599.368652 
	C3558.856201,4565.554199 3588.005859,4531.962402 3614.946777,4496.429688 
	C3654.059814,4444.843262 3689.846680,4391.352539 3719.510254,4333.793945 
	C3731.100830,4311.303223 3743.591064,4289.250488 3754.492432,4266.435059 
	C3780.888184,4211.192383 3805.976318,4155.344727 3828.004639,4098.187988 
	C3839.964600,4067.154785 3851.921387,4036.105713 3863.018799,4004.758789 
	C3872.991943,3976.586914 3881.913574,3948.038574 3891.033691,3919.571289 
	C3894.062744,3910.115234 3896.268066,3900.395020 3899.495605,3889.449219 
	C3928.767334,3888.043701 3957.394043,3888.084717 3986.018799,3887.881592 
	C3999.254883,3887.787354 4012.534180,3888.966309 4025.596191,3884.763428 
	C4030.460205,3883.198242 4036.159424,3884.113770 4041.478027,3884.098145 
	C4059.451904,3884.045898 4077.426025,3884.083008 4097.207520,3884.085938 
	C4097.976074,3891.958252 4097.347656,3899.910889 4095.837158,3907.691895 
	C4064.979004,4066.655273 4014.563232,4219.297363 3947.067139,4366.371094 
	C3908.682861,4450.010742 3865.318604,4530.956543 3815.327637,4608.294434 
	C3791.046631,4645.858398 3763.205566,4680.746582 3734.962158,4715.299805 
	C3641.184570,4830.027344 3539.052002,4936.768555 3428.231689,5035.176270 
	C3336.901123,5116.276855 3240.287598,5190.396973 3136.947998,5255.602051 
	C3043.169678,5314.774414 2944.415283,5364.060059 2840.973145,5404.013184 
	C2716.454346,5452.106934 2588.431641,5488.119629 2458.041016,5516.208008 
	C2368.798584,5535.432617 2278.872070,5550.676758 2188.379150,5562.303711 
	C2133.571777,5569.345703 2078.444336,5573.898926 2021.724487,5579.692383 
	C2017.521362,5579.216309 2014.969482,5577.867188 2012.600464,5578.135254 
	C1981.221680,5581.682129 1949.857544,5581.568848 1917.251465,5579.006836 
	C1842.737549,5570.081055 1769.352905,5561.116699 1696.188721,5550.616211 
	C1616.414185,5539.166016 1537.191895,5524.327148 1458.298950,5507.867676 
	C1372.240967,5489.913574 1286.791016,5469.456543 1202.156128,5445.554688 
	C1123.278564,5423.279297 1045.551636,5397.717285 968.849976,5368.802246 
	C813.623840,5310.285156 671.064880,5229.620117 541.218750,5126.436035 
	C438.055420,5044.455566 345.221191,4952.151367 262.266602,4849.698730 
	C222.157639,4800.162598 190.149002,4745.867188 161.383667,4689.368652 
	C112.305679,4592.973145 71.035751,4493.490234 42.755241,4388.888184 
	C28.822247,4337.353027 18.886946,4285.066406 13.641922,4229.190918 
	C13.068930,4224.315918 12.500765,4222.164062 11.932575,4220.012695 
	C11.864864,4214.497559 11.797177,4208.982422 11.434147,4201.837891 
z"/>
<path fill="#037660" opacity="1.000000" stroke="none" 
	d="
M761.790894,4236.387695 
	C766.675110,4236.664062 771.249634,4237.770020 775.404236,4239.755371 
	C813.787170,4258.098145 852.895142,4274.502930 892.856873,4289.286133 
	C934.753845,4304.784668 977.520264,4315.969238 1021.227234,4324.241699 
	C1041.372559,4328.054688 1061.505493,4331.954590 1081.718018,4335.378418 
	C1087.567383,4336.369141 1093.690918,4335.616211 1099.656982,4336.075684 
	C1106.902588,4336.633301 1114.108154,4337.692871 1121.343140,4338.412598 
	C1127.275391,4339.002441 1133.223022,4339.797363 1139.168091,4339.835449 
	C1164.480103,4339.997559 1189.794067,4339.982910 1215.106812,4339.884277 
	C1226.371582,4339.840332 1237.765747,4341.018555 1248.682129,4336.743164 
	C1250.465576,4336.044434 1252.659302,4336.000977 1254.612305,4336.187988 
	C1276.673340,4338.298340 1298.226318,4332.866211 1320.074341,4331.688477 
	C1335.199707,4330.873047 1350.204956,4327.744141 1365.250366,4325.555664 
	C1377.032593,4323.842285 1388.738037,4321.292969 1400.576294,4320.333984 
	C1427.776001,4318.130859 1453.957886,4310.672852 1480.604980,4305.662109 
	C1497.419678,4302.500488 1514.033325,4298.269043 1530.017822,4294.679199 
	C1533.098267,4285.622559 1528.289429,4280.408203 1524.740601,4274.994629 
	C1511.991699,4255.546387 1498.470459,4236.579590 1486.314331,4216.772461 
	C1461.955322,4177.082520 1439.022461,4136.589355 1423.565186,4092.384033 
	C1418.315674,4077.371094 1413.156494,4062.319336 1408.347534,4047.161133 
	C1392.533691,3997.315186 1399.758911,3950.215576 1425.546509,3905.354492 
	C1436.491089,3886.314941 1449.281616,3868.569336 1463.018555,3851.502930 
	C1468.416016,3844.797119 1474.530762,3838.668945 1480.648438,3831.913574 
	C1499.223267,3837.101562 1516.322510,3841.992920 1533.485962,3846.648193 
	C1574.402344,3857.745117 1615.157349,3869.388916 1657.098389,3876.403809 
	C1684.509399,3880.988770 1711.747192,3886.409180 1739.551392,3888.320557 
	C1750.094604,3889.045654 1760.553711,3890.992188 1773.034180,3892.612793 
	C1766.182861,3903.644287 1756.849365,3914.081543 1748.651123,3925.344971 
	C1740.052734,3937.158691 1732.001709,3949.451172 1724.678589,3962.094482 
	C1712.111572,3983.791260 1706.045410,4007.612305 1704.495361,4032.520508 
	C1702.668091,4061.884033 1704.046143,4091.186279 1709.492310,4120.082520 
	C1713.802368,4142.950684 1719.059692,4165.676758 1724.962036,4188.187012 
	C1726.969971,4195.844727 1726.874390,4202.256836 1723.697632,4209.258789 
	C1709.035522,4241.574219 1686.527954,4267.364746 1658.593994,4288.830566 
	C1629.090698,4311.502441 1595.498779,4325.664062 1560.330444,4336.598145 
	C1522.758301,4348.280273 1484.419189,4356.712891 1445.678955,4363.431152 
	C1384.600586,4374.022949 1323.119873,4381.240234 1261.240112,4384.765625 
	C1248.688110,4385.479980 1235.932373,4384.945801 1223.417480,4383.610352 
	C1132.664551,4373.921387 1042.303711,4361.610840 953.542419,4339.733398 
	C892.365356,4324.654297 834.459961,4301.560059 781.081299,4267.655273 
	C769.818298,4260.500977 761.047791,4252.148926 761.790894,4236.387695 
z"/>
<path fill="#037761" opacity="1.000000" stroke="none" 
	d="
M2275.329590,4205.170410 
	C2317.034180,4226.507324 2360.203369,4244.173340 2404.288574,4259.028809 
	C2433.679932,4268.933105 2463.973145,4276.547852 2495.104248,4280.661621 
	C2510.348145,4282.676270 2525.430664,4283.507324 2540.681641,4284.093750 
	C2576.206543,4285.459961 2610.730957,4278.948730 2645.023682,4271.032715 
	C2700.424561,4258.245117 2752.604980,4236.875977 2802.958008,4210.729980 
	C2812.749268,4205.645996 2820.181641,4198.864258 2825.575439,4189.084473 
	C2842.267334,4158.819336 2860.284912,4129.260254 2876.255615,4098.628906 
	C2892.509766,4067.453369 2906.745605,4035.254150 2919.964111,4002.618164 
	C2932.202148,3972.401611 2942.753418,3941.697754 2949.260986,3909.731201 
	C2953.219971,3890.285156 2956.704834,3870.734375 2959.989746,3851.161133 
	C2963.931152,3827.678711 2967.502441,3804.133057 2971.066895,3780.589111 
	C2971.761230,3776.003662 2971.532471,3771.286133 2972.008789,3766.658447 
	C2972.888916,3758.112061 2973.966064,3749.585938 2974.987549,3741.054443 
	C2975.145508,3739.735352 2975.568604,3738.441650 2975.658203,3737.121826 
	C2977.140869,3715.286621 2978.492920,3693.441895 2980.101318,3671.615967 
	C2980.635010,3664.373047 2982.092285,3657.197998 2982.620605,3649.954590 
	C2983.345459,3640.017578 2983.430664,3630.034668 2984.090820,3620.091309 
	C2984.561279,3613.003662 2982.483643,3605.585205 2985.883057,3599.047607 
	C2990.057373,3598.158447 2991.166748,3600.296387 2991.613525,3603.138184 
	C2994.183350,3619.476318 2996.758545,3635.813721 2999.263184,3652.161621 
	C2999.665527,3654.786621 2999.773926,3657.461426 2999.923584,3660.118652 
	C3000.036377,3662.113281 2999.741211,3664.158936 3000.064697,3666.109619 
	C3003.883545,3689.141113 3001.845703,3712.718506 3004.950684,3735.534180 
	C3008.399414,3760.875488 3008.425537,3786.041992 3007.417480,3811.145508 
	C3006.541260,3832.967773 3005.453369,3854.956787 3003.243164,3876.642334 
	C2999.692871,3911.481689 2994.235352,3946.146240 2984.900146,3980.188965 
	C2973.815430,4020.612061 2961.533936,4060.577637 2946.038086,4099.490723 
	C2922.649902,4158.223633 2896.806396,4215.873047 2867.873535,4272.108398 
	C2864.235596,4279.178711 2861.411865,4286.877930 2852.360352,4291.319336 
	C2852.783691,4286.084473 2854.592529,4280.463379 2856.906006,4273.274902 
	C2852.816895,4273.504395 2849.661865,4273.100586 2846.868896,4273.924805 
	C2789.880859,4290.746582 2731.964111,4303.112305 2672.971680,4310.302734 
	C2618.561523,4316.934570 2564.092773,4319.534180 2509.517334,4312.101074 
	C2467.768311,4306.414062 2427.188721,4295.643555 2387.271729,4282.609863 
	C2358.802979,4273.313965 2330.776367,4262.573242 2302.888184,4251.622559 
	C2282.766357,4243.721191 2273.804443,4228.280273 2275.329590,4205.170410 
z"/>
<path fill="#2DB5A1" opacity="1.000000" stroke="none" 
	d="
M1401.749756,63.638748 
	C1399.158569,62.125801 1398.077515,60.453362 1396.598999,57.860859 
	C1408.817505,53.344589 1421.322876,49.285221 1434.069702,46.236633 
	C1477.078247,35.950603 1520.465210,27.585072 1565.850342,22.179710 
	C1563.747925,24.164331 1560.249756,26.348377 1556.457031,27.164944 
	C1530.160522,32.826504 1503.779297,38.094692 1477.474487,43.718903 
	C1464.643066,46.462429 1451.842163,49.418449 1439.164917,52.794430 
	C1427.103394,56.006477 1415.220947,59.890633 1401.749756,63.638748 
z"/>
<path fill="#037761" opacity="1.000000" stroke="none" 
	d="
M2850.647705,4291.500977 
	C2851.463867,4292.472656 2850.909424,4293.665039 2849.240723,4295.330078 
	C2848.854980,4294.602051 2849.238770,4293.241699 2850.647705,4291.500977 
z"/>
<path fill="#029C84" opacity="1.000000" stroke="none" 
	d="
M1248.711670,1872.958984 
	C1252.838745,1871.972900 1257.754639,1871.453369 1259.865723,1878.554077 
	C1255.322754,1880.109863 1251.722412,1878.115723 1248.711670,1872.958984 
z"/>
<path fill="#02362E" opacity="1.000000" stroke="none" 
	d="
M3172.630859,691.106567 
	C3161.295410,677.192261 3157.850342,663.308411 3163.578369,647.270691 
	C3165.931641,640.681702 3169.552979,635.481323 3174.689453,631.145569 
	C3186.854736,620.877197 3199.104492,610.708618 3211.361816,600.550110 
	C3213.401367,598.859985 3216.147705,597.815247 3217.726562,595.810181 
	C3229.549072,580.795593 3245.864990,582.348206 3261.599854,584.783325 
	C3282.309082,587.988281 3298.115723,611.704468 3294.929199,632.472107 
	C3292.827881,646.166260 3287.026611,657.258423 3275.387451,665.604736 
	C3263.008545,674.481323 3251.322754,684.344238 3239.532959,694.018250 
	C3217.154541,712.380127 3195.274170,711.861755 3172.630859,691.106567 
z"/>
</svg>