<svg viewBox="0 0 1150 72" fill="none" xmlns="http://www.w3.org/2000/svg">
<path d="M845 58.0728L827.302 47.6669C809.604 37.1495 774.312 16.5053 738.71 11.958C703.469 7.57803 668.022 19.295 632.935 25.3488C597.333 31.291 561.731 31.291 526.645 37.2332C491.198 43.287 455.957 55.004 420.355 58.0728C385.062 61.1415 349.667 55.004 314.065 52.1306C278.927 49.1455 243.376 49.1455 208.29 52.1306C172.74 55.004 137.602 61.1415 119.543 64.0149L102 67H119.698C137.396 67 172.688 67 208.29 67C243.531 67 278.978 67 314.065 67C349.667 67 385.269 67 420.355 67C455.802 67 491.043 67 526.645 67C561.938 67 597.333 67 632.935 67C668.073 67 703.624 67 738.71 67C774.26 67 809.398 67 827.457 67H845V58.0728Z" fill="#A5BDEA"/>
<path d="M1075 65.5656L1050.23 51.0718C1025.46 36.4226 976.056 7.66806 926.222 1.3343C876.894 -4.76631 827.278 11.5538 778.167 19.9859C728.333 28.2625 678.5 28.2625 629.389 36.5391C579.772 44.9712 530.444 61.2913 480.611 65.5656C431.211 69.8399 381.667 61.2913 331.833 57.289C282.65 53.1313 232.889 53.1313 183.778 57.289C134.017 61.2913 84.8334 69.8399 59.5556 73.8422L35 78H59.7723C84.5445 78 133.944 78 183.778 78C233.106 78 282.722 78 331.833 78C381.667 78 431.5 78 480.611 78C530.228 78 579.556 78 629.389 78C678.789 78 728.333 78 778.167 78C827.35 78 877.111 78 926.222 78C975.983 78 1025.17 78 1050.44 78H1075V65.5656Z" fill="#8490D2"/>
<path d="M1150 67.3192L1133.99 54.8694C1117.99 42.286 1086.07 17.5867 1053.87 12.1461C1021.99 6.90586 989.933 20.9244 958.2 28.1673C926 35.2768 893.8 35.2768 862.067 42.3862C830.007 49.6291 798.133 63.6477 765.933 67.3192C734.013 70.9907 702 63.6477 669.8 60.2098C638.02 56.6384 605.867 56.6384 574.133 60.2098C541.98 63.6477 510.2 70.9907 493.867 74.4286L478 78H494.007C510.013 78 541.933 78 574.133 78C606.007 78 638.067 78 669.8 78C702 78 734.2 78 765.933 78C797.993 78 829.867 78 862.067 78C893.987 78 926 78 958.2 78C989.98 78 1022.13 78 1053.87 78C1086.02 78 1117.8 78 1134.13 78H1150V67.3192Z" fill="#36398c"/>
<path d="M0 72.4205L17.5787 65.9168C35.1575 59.3435 70.2125 46.4408 105.575 43.5987C140.579 40.8613 175.787 48.1844 210.637 51.968C246 55.6819 281.362 55.6819 316.212 59.3958C351.421 63.1794 386.425 70.5025 421.787 72.4205C456.842 74.3384 492 70.5025 527.362 68.7066C562.264 66.8409 597.575 66.8409 632.425 68.7066C667.736 70.5025 702.637 74.3384 720.575 76.1343L738 78H720.421C702.842 78 667.787 78 632.425 78C597.421 78 562.212 78 527.362 78C492 78 456.637 78 421.787 78C386.579 78 351.575 78 316.212 78C281.157 78 246 78 210.637 78C175.736 78 140.425 78 105.575 78C70.2637 78 35.3625 78 17.425 78H0V72.4205Z" fill="#36398c"/>
</svg>
