<svg id="wave" style="transform:rotate(0deg); transition: 0.3s" viewBox="0 0 1440 240" version="1.1" xmlns="http://www.w3.org/2000/svg"><defs><linearGradient id="sw-gradient-0" x1="0" x2="0" y1="1" y2="0"><stop stop-color="rgba(54, 57, 140, 1)" offset="50%"></stop><stop stop-color="rgba(165, 189, 234, 1)" offset="100%"></stop></linearGradient></defs><path style="transform:translate(0, 0px); opacity:1" fill="url(#sw-gradient-0)" d="M0,72L30,92C60,112,120,152,180,148C240,144,300,96,360,84C420,72,480,96,540,104C600,112,660,104,720,96C780,88,840,80,900,88C960,96,1020,120,1080,132C1140,144,1200,144,1260,132C1320,120,1380,96,1440,100C1500,104,1560,136,1620,156C1680,176,1740,184,1800,176C1860,168,1920,144,1980,120C2040,96,2100,72,2160,52C2220,32,2280,16,2340,32C2400,48,2460,96,2520,96C2580,96,2640,48,2700,32C2760,16,2820,32,2880,48C2940,64,3000,80,3060,72C3120,64,3180,32,3240,40C3300,48,3360,96,3420,124C3480,152,3540,160,3600,152C3660,144,3720,120,3780,124C3840,128,3900,160,3960,152C4020,144,4080,96,4140,92C4200,88,4260,128,4290,148L4320,168L4320,240L4290,240C4260,240,4200,240,4140,240C4080,240,4020,240,3960,240C3900,240,3840,240,3780,240C3720,240,3660,240,3600,240C3540,240,3480,240,3420,240C3360,240,3300,240,3240,240C3180,240,3120,240,3060,240C3000,240,2940,240,2880,240C2820,240,2760,240,2700,240C2640,240,2580,240,2520,240C2460,240,2400,240,2340,240C2280,240,2220,240,2160,240C2100,240,2040,240,1980,240C1920,240,1860,240,1800,240C1740,240,1680,240,1620,240C1560,240,1500,240,1440,240C1380,240,1320,240,1260,240C1200,240,1140,240,1080,240C1020,240,960,240,900,240C840,240,780,240,720,240C660,240,600,240,540,240C480,240,420,240,360,240C300,240,240,240,180,240C120,240,60,240,30,240L0,240Z"></path><defs><linearGradient id="sw-gradient-1" x1="0" x2="0" y1="1" y2="0"><stop stop-color="rgba(54, 57, 140, 1)" offset="0%"></stop><stop stop-color="rgba(54, 57, 140, 1)" offset="100%"></stop></linearGradient></defs><path style="transform:translate(0, 50px); opacity:0.9" fill="url(#sw-gradient-1)" d="M0,48L30,48C60,48,120,48,180,72C240,96,300,144,360,160C420,176,480,160,540,140C600,120,660,96,720,92C780,88,840,104,900,92C960,80,1020,40,1080,40C1140,40,1200,80,1260,116C1320,152,1380,184,1440,196C1500,208,1560,200,1620,164C1680,128,1740,64,1800,36C1860,8,1920,16,1980,28C2040,40,2100,56,2160,80C2220,104,2280,136,2340,144C2400,152,2460,136,2520,116C2580,96,2640,72,2700,68C2760,64,2820,80,2880,100C2940,120,3000,144,3060,136C3120,128,3180,88,3240,60C3300,32,3360,16,3420,16C3480,16,3540,32,3600,68C3660,104,3720,160,3780,188C3840,216,3900,216,3960,192C4020,168,4080,120,4140,100C4200,80,4260,88,4290,92L4320,96L4320,240L4290,240C4260,240,4200,240,4140,240C4080,240,4020,240,3960,240C3900,240,3840,240,3780,240C3720,240,3660,240,3600,240C3540,240,3480,240,3420,240C3360,240,3300,240,3240,240C3180,240,3120,240,3060,240C3000,240,2940,240,2880,240C2820,240,2760,240,2700,240C2640,240,2580,240,2520,240C2460,240,2400,240,2340,240C2280,240,2220,240,2160,240C2100,240,2040,240,1980,240C1920,240,1860,240,1800,240C1740,240,1680,240,1620,240C1560,240,1500,240,1440,240C1380,240,1320,240,1260,240C1200,240,1140,240,1080,240C1020,240,960,240,900,240C840,240,780,240,720,240C660,240,600,240,540,240C480,240,420,240,360,240C300,240,240,240,180,240C120,240,60,240,30,240L0,240Z"></path><defs><linearGradient id="sw-gradient-2" x1="0" x2="0" y1="1" y2="0"><stop stop-color="rgba(54, 57, 140, 1)" offset="0%"></stop><stop stop-color="rgba(54, 57, 140, 1)" offset="100%"></stop></linearGradient></defs><path style="transform:translate(0, 100px); opacity:0.8" fill="url(#sw-gradient-2)" d="M0,72L30,72C60,72,120,72,180,64C240,56,300,40,360,56C420,72,480,120,540,120C600,120,660,72,720,72C780,72,840,120,900,152C960,184,1020,200,1080,176C1140,152,1200,88,1260,80C1320,72,1380,120,1440,148C1500,176,1560,184,1620,164C1680,144,1740,96,1800,80C1860,64,1920,80,1980,84C2040,88,2100,80,2160,76C2220,72,2280,72,2340,84C2400,96,2460,120,2520,108C2580,96,2640,48,2700,40C2760,32,2820,64,2880,80C2940,96,3000,96,3060,84C3120,72,3180,48,3240,60C3300,72,3360,120,3420,148C3480,176,3540,184,3600,160C3660,136,3720,80,3780,56C3840,32,3900,40,3960,44C4020,48,4080,48,4140,52C4200,56,4260,64,4290,68L4320,72L4320,240L4290,240C4260,240,4200,240,4140,240C4080,240,4020,240,3960,240C3900,240,3840,240,3780,240C3720,240,3660,240,3600,240C3540,240,3480,240,3420,240C3360,240,3300,240,3240,240C3180,240,3120,240,3060,240C3000,240,2940,240,2880,240C2820,240,2760,240,2700,240C2640,240,2580,240,2520,240C2460,240,2400,240,2340,240C2280,240,2220,240,2160,240C2100,240,2040,240,1980,240C1920,240,1860,240,1800,240C1740,240,1680,240,1620,240C1560,240,1500,240,1440,240C1380,240,1320,240,1260,240C1200,240,1140,240,1080,240C1020,240,960,240,900,240C840,240,780,240,720,240C660,240,600,240,540,240C480,240,420,240,360,240C300,240,240,240,180,240C120,240,60,240,30,240L0,240Z"></path></svg>