<svg viewBox="0 0 1440 100" fill="none" xmlns="http://www.w3.org/2000/svg">
<path d="M0 86.5802L34.3 67.441C68.6 48.0965 137 10.1258 206 1.76196C274.3 -6.29398 343 15.2569 411 26.3916C480 37.321 549 37.321 617 48.2504C685.7 59.385 754 80.936 823 86.5802C891.4 92.2245 960 80.936 1029 75.6509C1097.1 70.1605 1166 70.1605 1234 75.6509C1302.9 80.936 1371 92.2245 1406 97.5096L1440 103H1405.7C1371.4 103 1303 103 1234 103C1165.7 103 1097 103 1029 103C960 103 891 103 823 103C754.3 103 686 103 617 103C548.6 103 480 103 411 103C342.9 103 274 103 206 103C137.1 103 69 103 34 103H0V86.5802Z" fill="#01725C"/>
</svg>
